<svg xmlns="http://www.w3.org/2000/svg" width="195" height="28" fill="none">
    <g clip-path="url(#a)">
        <path fill="#fff"
            d="m46.6 22-1.2-2.8h-7.2L37 22.1h-4.8l6.5-14.5H45l6.5 14.5zm-7-6H44l-2.2-5.2zM67 11.2H56.5v2H67v3.2H56.5v2.1H67v3.6H52.1V7.6H67zM84.2 13c0 2.3-1 4-2.7 4.8l2.5 4.3h-5.2l-2-3.7h-4.5v3.7h-4.4V7.6h11c3.1 0 5.3 2.2 5.3 5.4m-12-1.5v3.1H78c.8 0 2 0 2-1.6 0-1.5-1.2-1.5-2-1.5zm21.5 10.8c-6.2 0-8.8-2.6-8.8-7.5s2.6-7.4 8.8-7.4c6.1 0 8.8 2.6 8.8 7.4 0 4.9-2.7 7.5-8.8 7.5m0-3.9c3.4 0 4.4-1.4 4.4-3.6s-1-3.5-4.4-3.5c-3.4 0-4.4 1.3-4.4 3.5 0 2.3 1 3.6 4.4 3.6m20-10.8c3.5 0 6.7 2.3 6.7 7.2 0 5-3.2 7.3-6.7 7.3h-10.3V7.6zm-1.5 10.6c2 0 3.8-.3 3.8-3.4s-1.8-3.3-3.8-3.3h-4.4v6.7zm25.5-5.2c0 2.3-1 4-2.7 4.8l2.5 4.3h-5.2l-2-3.7h-4.6v3.7h-4.4V7.6h11c3.2 0 5.4 2.2 5.4 5.4m-12-1.5v3.1h5.6c.9 0 2 0 2-1.6 0-1.5-1.1-1.5-2-1.5zm21.5 10.8c-6.2 0-8.8-2.6-8.8-7.5s2.6-7.4 8.8-7.4c6.1 0 8.8 2.6 8.8 7.4 0 4.9-2.7 7.5-8.8 7.5m0-3.9c3.4 0 4.4-1.4 4.4-3.6s-1-3.5-4.4-3.5c-3.4 0-4.4 1.3-4.4 3.5 0 2.3 1 3.6 4.4 3.6m31.2-10.8v14.5H174v-8.5l-4.9 8.5h-3l-4.8-8.5v8.5H157V7.6h5.7l5 9.2 5.1-9.2zm16 3.6H184v2h10.4v3.2H184v2.1h10.4v3.6h-14.8V7.6h14.8z" />
        <mask id="b" width="23" height="28" x="0" y="0" maskUnits="userSpaceOnUse" style="mask-type:luminance">
            <path fill="#fff" d="M22.2 0H.3v27.7h22z" />
        </mask>
        <g mask="url(#b)">
            <path fill="#0C0D1D"
                d="M2.6 11.1v-.4h.1v-.2a3.7 3.7 0 0 1 .1 0v-.2H3V10h.1v-.2h.1v-.1h.1v-.1h.1v-.1a.2.2 0 0 0 .1 0v-.1h.1v-.1h.1v-.1h.1v-.1H4A.1.1 0 0 0 4 9h.1v-.1h.1v-.1h.2v-.1h.1v-.1h.1v-.1h.1a.3.3 0 0 0 .1-.1.3.3 0 0 0 .1 0 .3.3 0 0 0 0-.1.3.3 0 0 0 .1 0 .3.3 0 0 0 0-.1.2.2 0 0 0 .1 0 .3.3 0 0 0 .1-.1.3.3 0 0 0 .1 0V8a.3.3 0 0 0 .1 0 .3.3 0 0 0 .1-.1h.1a.3.3 0 0 0 0-.1h.1v-.1H6v-.1l.1-.1h.1v-.1h.2a.2.2 0 0 0 0-.1.2.2 0 0 0 .1 0 .2.2 0 0 0 .1-.1.2.2 0 0 0 .1 0V7H7l.1-.1h.1v-.1h.2l.1-.1h.1v-.1a.3.3 0 0 0 .1 0 .3.3 0 0 0 .1 0 .3.3 0 0 0 0-.1H8v-.1h.2v-.1h.2l.1-.1h.2a78.8 78.8 0 0 0 0-.1h.1L9 6a43.2 43.2 0 0 1 .2-.1h.1l.1-.1h.2v-.1h.2v-.1h.2l.1-.1h.1l.1-.1h.2l.1-.1a1.2 1.2 0 0 0 .1 0 1.3 1.3 0 0 0 .1 0 1.3 1.3 0 0 0 .1-.1h.1a23.5 23.5 0 0 1 .2-.1h.1V5h.4v-.1h.2v-.1h.2l.1-.1h.2l.1-.1h.2l.1-.1h.2v-.1h.3v-.1h.3v-.1h.3L14 4h.2l.1-.1h.2l.1-.1h.2l.1-.1h.4v-.1h.2a.5.5 0 0 0 .1-.1h.1a.5.5 0 0 0 .1 0 .5.5 0 0 0 .1 0 .5.5 0 0 0 .1-.1h.2l.1-.1h.3l.1-.1h.3v-.1h.4V3h.8v-.1h.4v-.1h.3a.7.7 0 0 0 .1 0 .7.7 0 0 0 0-.1 1 1 0 0 0 .1 0h.1a1 1 0 0 0 .2 0l.2-.1h.2a.6.6 0 0 0 .1 0 .6.6 0 0 0 0-.1.6.6 0 0 0 .1 0 .6.6 0 0 0 .1 0 .6.6 0 0 0 .2 0v-.1a3.7 3.7 0 0 0 .2 0h.2v-.1h.5c.6-.2 1-.7 1-1.2 0-.7-.5-1.2-1.1-1.2h-.4V0h-.5v.1H20a.8.8 0 0 0-.2 0 .8.8 0 0 0-.1 0 .8.8 0 0 0 0 .1.6.6 0 0 0-.1 0 .6.6 0 0 0-.1 0 .6.6 0 0 0-.2 0 .6.6 0 0 0 0 .1.6.6 0 0 0-.2 0 .6.6 0 0 0-.1 0 .6.6 0 0 0-.1 0 .6.6 0 0 0-.1.1.6.6 0 0 0-.1 0h-.3v.1a1 1 0 0 0-.2 0H18l-.1.1h-.4l-.1.1h-.3l-.1.1h-.3l-.1.1h-.3V1H16v.1h-.4l-.1.1h-.3v.1a.5.5 0 0 0-.1 0 .5.5 0 0 0-.1 0v.1h-.4l-.1.1h-.3v.1H14v.1h-.4l-.1.1h-.1l-.3.1H13V2h-.4v.1h-.3v.1h-.2l-.1.1h-.2l-.1.1h-.2l-.1.1h-.1l-.1.1H11l-.1.1h-.2v.1h-.3V3h-.2l-.1.1H10l-.1.1h-.1a1.2 1.2 0 0 0-.1.1h-.2v.1h-.2l-.1.1H9v.1h-.2l-.1.1h-.2v.1h-.1a1 1 0 0 1-.1 0 1 1 0 0 1 0 .1H8A95.6 95.6 0 0 1 8 4h-.1l-.1.1h-.1a.4.4 0 0 0-.1.1.4.4 0 0 0-.1 0 .3.3 0 0 0-.1 0 .3.3 0 0 0 0 .1.4.4 0 0 0-.1 0 .4.4 0 0 0-.1.1.4.4 0 0 0-.1 0 .4.4 0 0 0-.1.1h-.1l-.1.1h-.1l-.1.1h-.1v.1h-.2v.1H6V5l-.1.1-.3.1-.1.1h-.1v.1h-.1l-.1.1H5l-.1.1h-.1v.1h-.1l-.1.1h-.1v.1h-.1l-.1.1h-.1a.8.8 0 0 0 0 .1h-.1A.3.3 0 0 0 4 6a.3.3 0 0 0 0 .1.3.3 0 0 0 0 .1h-.1l-.1.1h-.1v.1h-.1v.1h-.2v.1h-.1v.1h-.1v.1H3V7h-.2l-.2.2v.1h-.1v.1h-.1a.1.1 0 0 0-.1.1.2.2 0 0 0-.1.1l-.1.1H2v.1l-.1.1V8h-.1v.1h-.1v.1h-.1v.1h-.1l-.1.2-.1.1v.1h-.1v.1L1 9v.2H.8v.1a1 1 0 0 0-.2.3v.1l-.1.1v.2l-.1.1a1 1 0 0 0 0 .2v.1H.3v.4a1.1 1.1 0 0 0 0 .3v.4a1.2 1.2 0 0 0 0 .3v.2a1.1 1.1 0 0 0 0 .2l.1.1v.2h.1v.1l.1.2.1.1v.1H1v.2l.2.2v.1h.1v.1h.1v.1h.1v.1h.1v.1h.1v.1l.2.2H2v.1h.2v.1h.1v.1h.2a.1.1 0 0 0 0 .1.1.1 0 0 0 .1 0v.1h.1a.2.2 0 0 0 .1 0 .2.2 0 0 0 0 .1.2.2 0 0 0 .1 0l.1.1h.1v.1h.1l.2.1h.1v.1h.1l.1.1h.1l.1.1H4l.1.1h.1l.1.1h.2v.1h.2v.1H5v.1h.2v.1a.7.7 0 0 0 .2 0 .7.7 0 0 0 .1 0v.1h.4a.7.7 0 0 1 0 .1.7.7 0 0 1 .2 0 36.9 36.9 0 0 1 .1.1h.2l.1.1h.2l.1.1h.1a1 1 0 0 0 .1 0v.1h.1a1 1 0 0 0 .1 0 .3.3 0 0 0 .1.1h.4l.1.1H8v.1h.4v.1h.4l.1.1h.4l.1.1h.3l.1.1h.4v.1h.5a.4.4 0 0 0 0 .1.4.4 0 0 0 .1 0 .4.4 0 0 0 .1 0 .4.4 0 0 0 .1 0 .4.4 0 0 0 .1 0 .4.4 0 0 0 .1 0 .4.4 0 0 0 .1.1h.1a.4.4 0 0 0 .1 0 .4.4 0 0 0 .1 0 .4.4 0 0 0 .1 0h.1a.4.4 0 0 0 0 .1.4.4 0 0 0 .1 0 .4.4 0 0 0 .1 0h.1a.5.5 0 0 0 .1 0 .4.4 0 0 0 .1 0h.1v.1h.1a.4.4 0 0 0 .1 0 .4.4 0 0 0 .1 0 .4.4 0 0 0 .1 0 .4.4 0 0 0 .1 0 .4.4 0 0 0 .1 0 .4.4 0 0 0 0 .1.4.4 0 0 0 .1 0h.4a.2.2 0 0 0 .1 0l.1.1h.7l.1.1h.8l.1.1h.3a.4.4 0 0 0 .2 0h.3v.1h.8a.4.4 0 0 0 .1 0v.1a.4.4 0 0 0 .1 0h.1a.4.4 0 0 0 .1 0 .4.4 0 0 0 .1 0h.3a.4.4 0 0 0 .1 0h.5l.1.1h1.3v.1h.9a.3.3 0 0 0 .4-.3.3.3 0 0 0-.3-.3h-.1a.3.3 0 0 0-.1 0 .3.3 0 0 0-.1 0 .3.3 0 0 0-.1 0 .3.3 0 0 0-.1 0 .3.3 0 0 0-.1 0 .3.3 0 0 0 0-.1H20a.3.3 0 0 0-.1 0 .3.3 0 0 0-.1 0 .3.3 0 0 0-.1 0 .3.3 0 0 0-.1 0 .3.3 0 0 0-.1 0 .3.3 0 0 0-.1 0 .3.3 0 0 0-.2 0 .3.3 0 0 0 0-.1.3.3 0 0 0-.1 0 .3.3 0 0 0-.2 0 .3.3 0 0 0-.1 0 .3.3 0 0 0-.1 0 .3.3 0 0 0-.1 0 .3.3 0 0 0-.2 0 .3.3 0 0 0-.1 0 .3.3 0 0 0-.1-.1.3.3 0 0 0-.1 0 .3.3 0 0 0-.2 0 .3.3 0 0 0-.1 0 .3.3 0 0 0-.2 0 .3.3 0 0 0-.1 0 .3.3 0 0 0-.2-.1h-.1a.5.5 0 0 0-.2 0h-.1a.5.5 0 0 0-.1 0 .5.5 0 0 0-.1-.1.5.5 0 0 0-.1 0 .5.5 0 0 0-.1 0h-.1a.5.5 0 0 0-.1 0 .5.5 0 0 0-.2 0 .5.5 0 0 0 0-.1.5.5 0 0 0-.1 0 .5.5 0 0 0-.1 0 .5.5 0 0 0-.1 0 .4.4 0 0 0-.1 0h-.2a.4.4 0 0 0-.1-.1.4.4 0 0 0-.1 0h-.1a.4.4 0 0 0-.1 0 .4.4 0 0 0-.1 0 .4.4 0 0 0-.1 0l-.1-.1h-.5l-.1-.1H14a.4.4 0 0 0-.1 0h-.1l-.1-.1a.4.4 0 0 0-.1 0 .4.4 0 0 0-.1 0h-.1a.4.4 0 0 0-.1 0 .4.4 0 0 0-.1-.1H13a.4.4 0 0 0-.1 0l-.1-.1a.4.4 0 0 0-.1 0 .4.4 0 0 0-.1 0h-.1a.4.4 0 0 0-.1 0 .4.4 0 0 0-.1-.1H12l-.1-.1h-.4v-.1h-.2a1.6 1.6 0 0 0-.2 0v-.1h-.4v-.1h-.1a1.4 1.4 0 0 0-.2 0l-.1-.1H10V16h-.2l-.1-.1h-.4v-.1H9l-.1-.1h-.2l-.1-.1h-.2l-.1-.1h-.2v-.1h-.3v-.1h-.2a.3.3 0 0 0-.1-.1h-.1a.3.3 0 0 0-.1 0 .3.3 0 0 0 0-.1h-.2a.3.3 0 0 0 0-.1H7a.3.3 0 0 0-.1-.1.3.3 0 0 0-.1 0 .3.3 0 0 0-.1 0 .3.3 0 0 0 0-.1.3.3 0 0 0-.1 0 .3.3 0 0 0-.1 0l-.1-.1h-.1l-.1-.1H6v-.1h-.2v-.1h-.2v-.1h-.2a.2.2 0 0 1 0-.1h-.2V14h-.3v-.1h-.1l-.1-.1h-.1v-.1h-.1l-.1-.1h-.1v-.1h-.1l-.1-.1H4v-.1h-.1v-.1h-.1V13h-.3v-.1h-.1v-.1h-.1v-.1a30.5 30.5 0 0 1-.1 0v-.1H3v-.3h-.1v-.1h-.1V12h-.1v-.2h-.1v-.7z" />
            <path fill="#0433FF"
                d="M2.6 13.4V13h.1v-.2h.1v-.2H3v-.2h.1v-.2h.1V12h.2v-.1a.2.2 0 0 0 .1 0v-.1h.1v-.1h.1v-.1h.1v-.1H4a.1.1 0 0 0 0-.1.1.1 0 0 0 .1 0v-.1h.1v-.1h.1V11h.3v-.1h.1v-.1h.1a.3.3 0 0 0 .1-.1.3.3 0 0 0 .1 0 .3.3 0 0 0 0-.1.3.3 0 0 0 .1 0 .3.3 0 0 0 0-.1.2.2 0 0 0 .1 0 .3.3 0 0 0 .1-.1h.1v-.1a.3.3 0 0 0 .1 0v-.1a.3.3 0 0 0 .1 0h.1a.3.3 0 0 0 0-.1h.1V10H6v-.1l.1-.1h.1v-.1h.2a.2.2 0 0 0 0-.1h.1a.2.2 0 0 0 .1-.1.2.2 0 0 0 .1 0v-.1H7v-.1l.1-.1h.1V9h.2l.1-.1h.1v-.1a.3.3 0 0 0 .1 0 .3.3 0 0 0 .1 0 .3.3 0 0 0 0-.1H8v-.1h.2v-.1h.2l.1-.1h.2a19.1 19.1 0 0 1 0-.1h.1l.1-.1h.2v-.1h.2l.1-.1h.4v-.1h.2l.1-.1h.1l.1-.1h.2l.1-.1h.2v-.1h.2l.1-.1h.2v-.1h.4v-.1h.2V7h.2l.1-.1h.2l.1-.1h.2l.1-.1h.2v-.1h.3v-.1h.3v-.1h.3l.1-.1h.2l.1-.1h.2l.1-.1h.2L15 6h.5a.5.5 0 0 0 .1-.1h.1a.5.5 0 0 0 .1 0h.1a.5.5 0 0 0 .1-.1h.2a.5.5 0 0 0 .1-.1h.3l.1-.1h.3v-.1h.4v-.1h.4v-.1h.4v-.1h.4V5a.7.7 0 0 0 .1 0h.1a.7.7 0 0 0 .1 0 .7.7 0 0 0 .1 0 .7.7 0 0 0 0-.1 1 1 0 0 0 .1 0h.2l.2-.1h.2a.6.6 0 0 0 .1 0 .6.6 0 0 0 0-.1.6.6 0 0 0 .1 0 .6.6 0 0 0 .1 0 .6.6 0 0 0 .2 0v-.1a3.6 3.6 0 0 0 .2 0h.3v-.1h.5c.6-.2 1-.7 1-1.2 0-.7-.5-1.2-1.1-1.2h-.4a4.1 4.1 0 0 0-.1.1h-.4v.1H20a.8.8 0 0 0-.2 0 .8.8 0 0 0-.1 0 .8.8 0 0 0 0 .1.6.6 0 0 0-.1 0 .6.6 0 0 0-.1 0 .6.6 0 0 0-.2 0 .6.6 0 0 0 0 .1.6.6 0 0 0-.2 0 .6.6 0 0 0-.1 0 .6.6 0 0 0-.1 0 .6.6 0 0 0-.1.1.6.6 0 0 0-.1 0h-.3a1 1 0 0 0 0 .1 1 1 0 0 0-.2 0H18l-.1.1h-.4l-.1.1h-.3L17 3h-.3l-.1.1h-.3v.1H16v.1h-.4l-.1.1h-.3a.5.5 0 0 0 0 .1.5.5 0 0 0-.1 0H15a.5.5 0 0 0 0 .1h-.4l-.1.1h-.3V4h-.6l-.1.1h-.1l-.3.1H13v.1h-.4v.1h-.3v.1h-.2l-.1.1h-.2l-.1.1h-.2l-.1.1h-.1l-.1.1H11V5h-.2v.1h-.4v.1h-.2l-.1.1H10a43.5 43.5 0 0 0-.1 0l-.1.1h-.1a1.2 1.2 0 0 0-.1.1 1.2 1.2 0 0 0-.2 0v.1h-.2l-.1.1H9a1.1 1.1 0 0 0 0 .1 1 1 0 0 0-.1 0h-.1a1 1 0 0 0-.1.1h-.2V6h-.1a1 1 0 0 1-.1 0 1 1 0 0 1 0 .1H8l-.1.1a43.2 43.2 0 0 0-.2 0v.1a.4.4 0 0 0-.1 0 .4.4 0 0 0-.1.1h-.2a.3.3 0 0 0 0 .1.4.4 0 0 0-.1 0 .4.4 0 0 0-.1.1.4.4 0 0 0-.1 0 .4.4 0 0 0-.1.1h-.1l-.1.1h-.1l-.1.1h-.1V7h-.2v.1H6v.1h-.2v.1a1.2 1.2 0 0 0-.3.1l-.1.1h-.1v.1h-.1l-.1.1H5a.2.2 0 0 0-.1.1h-.1V8h-.1l-.1.1h-.1v.1h-.1l-.1.1h-.1v.1h-.1a.3.3 0 0 0-.1 0 .3.3 0 0 0 0 .1v.1h-.1l-.1.1h-.1v.1h-.1v.1h-.2V9h-.2v.1H3l-.1.1h-.1v.1h-.1l-.2.2v.1h-.1v.1a.1.1 0 0 0-.1 0 .1.1 0 0 0-.1.1.2.2 0 0 0-.1.1L2 10a47.7 47.7 0 0 0-.1 0v.1l-.1.1v.1h-.1v.1h-.1v.1h-.1v.1h-.1l-.1.2-.1.1v.1h-.1v.1l-.1.1a.5.5 0 0 1 0 .1.2.2 0 0 0-.1 0v.2H.8v.1l-.2.2v.4H.5v.2l-.1.1a1 1 0 0 0 0 .2v.1H.3v.2a1.1 1.1 0 0 0 0 .3v.4a1.2 1.2 0 0 0 0 .3v.2a1.1 1.1 0 0 0 0 .2l.1.1v.2h.1v.1l.1.2.1.1v.1H1v.2l.2.2a.1.1 0 0 0 0 .1h.1v.1h.1v.1h.1v.1h.1v.1h.1v.1l.2.2H2v.1h.2v.1h.1v.1h.2a.1.1 0 0 0 0 .1.1.1 0 0 0 .1 0v.1h.1a.2.2 0 0 0 .1 0v.1a.2.2 0 0 0 .1 0l.1.1h.1v.1h.1l.2.1h.1v.1h.1l.1.1H4v.1l.1.1h.1l.1.1h.2v.1h.2v.1H5v.1h.2a.7.7 0 0 0 .2.1.7.7 0 0 0 .1 0v.1h.2a.7.7 0 0 1 .2.1H6a36.9 36.9 0 0 1 .1.1h.4v.1h.2l.1.1h.1a1 1 0 0 0 .1 0 1 1 0 0 0 .1 0v.1h.1a1 1 0 0 0 .1 0 .3.3 0 0 0 .1.1.3.3 0 0 0 .1 0h.2l.1.1H8l.1.1h.4v.1h.4l.1.1h.3l.1.1h.3l.1.1h.4v.1h.5a.4.4 0 0 0 0 .1.4.4 0 0 0 .1 0 .4.4 0 0 0 .1 0 .4.4 0 0 0 .1 0 .4.4 0 0 0 .1 0 .4.4 0 0 0 .1 0 .4.4 0 0 0 .1.1h.1a.4.4 0 0 0 .1 0 .4.4 0 0 0 .1 0 .4.4 0 0 0 .1 0h.1a.4.4 0 0 0 .1.1.4.4 0 0 0 .1 0h.1a.4.4 0 0 0 .1 0 .4.4 0 0 0 .1 0h.1l.1.1a.5.5 0 0 0 .1 0 .4.4 0 0 0 .1 0 .4.4 0 0 0 .1 0 .4.4 0 0 0 .2 0 .4.4 0 0 0 0 .1.4.4 0 0 0 .1 0h.4a.2.2 0 0 0 .1 0l.1.1h.8v.1h.8l.1.1h.3a.4.4 0 0 0 .2 0h.3v.1h.8a.4.4 0 0 0 .1 0 .4.4 0 0 0 .1.1h.1a.4.4 0 0 0 .1 0 .4.4 0 0 0 .1 0 .4.4 0 0 0 .1 0 .4.4 0 0 0 .1 0h.1a.4.4 0 0 0 .1 0h.5l.1.1h1.3l.1.1h.8a.3.3 0 0 0 .4-.3.3.3 0 0 0-.3-.3h-.1a.3.3 0 0 0-.1 0 .3.3 0 0 0-.1 0 .3.3 0 0 0-.1 0 .3.3 0 0 0-.1 0 .3.3 0 0 0-.1-.1H20a.3.3 0 0 0-.1 0 .3.3 0 0 0-.1 0 .3.3 0 0 0-.1 0 .3.3 0 0 0-.1 0 .3.3 0 0 0-.1 0 .3.3 0 0 0-.1 0 .3.3 0 0 0-.2 0 .3.3 0 0 0 0-.1.3.3 0 0 0-.1 0 .3.3 0 0 0-.2 0 .3.3 0 0 0-.1 0 .3.3 0 0 0-.1 0 .3.3 0 0 0-.1 0 .3.3 0 0 0-.2 0 .3.3 0 0 0-.1-.1.3.3 0 0 0-.1 0 .3.3 0 0 0-.1 0 .3.3 0 0 0-.2 0 .3.3 0 0 0-.1 0 .3.3 0 0 0-.2 0 .3.3 0 0 0-.1 0 .3.3 0 0 0-.2-.1H17a.5.5 0 0 0-.1 0h-.1a.5.5 0 0 0-.1 0 .5.5 0 0 0-.1-.1.5.5 0 0 0-.1 0 .5.5 0 0 0-.1 0h-.1a.5.5 0 0 0-.1 0 .5.5 0 0 0-.2 0 .5.5 0 0 0 0-.1.5.5 0 0 0-.1 0 .5.5 0 0 0-.1 0 .5.5 0 0 0-.1 0 .4.4 0 0 0-.1 0h-.2a.4.4 0 0 0-.1-.1.4.4 0 0 0-.1 0h-.1a.4.4 0 0 0-.1 0 .4.4 0 0 0-.1 0 .4.4 0 0 0-.1 0 .4.4 0 0 0-.1-.1h-.4l-.1-.1H14a.4.4 0 0 0-.1 0h-.1l-.1-.1a.4.4 0 0 0-.1 0 .4.4 0 0 0-.1 0h-.2a.4.4 0 0 0-.1-.1H13a.4.4 0 0 0-.1 0l-.1-.1a.4.4 0 0 0-.1 0 .4.4 0 0 0-.1 0h-.2a.4.4 0 0 0 0-.1.4.4 0 0 0-.1 0H12l-.1-.1h-.4l-.1-.1h-.2a1.6 1.6 0 0 0-.2 0v-.1h-.3v-.1h-.1a1.4 1.4 0 0 0-.2 0l-.1-.1H10v-.1h-.3l-.1-.1h-.3V18h-.5l-.1-.1h-.2l-.1-.1h-.2v-.1H8l-.1-.1h-.2a.3.3 0 0 0-.1-.1h-.1a.3.3 0 0 0-.1 0 .3.3 0 0 0 0-.1h-.2a.3.3 0 0 0 0-.1H7a.3.3 0 0 0-.1-.1.3.3 0 0 0-.1 0 .3.3 0 0 0-.1 0 .3.3 0 0 0 0-.1.3.3 0 0 0-.1 0 .3.3 0 0 0-.1 0l-.1-.1h-.1l-.1-.1H6v-.1h-.2v-.1h-.2v-.1h-.2a.2.2 0 0 1 0-.1h-.1l-.1-.1H5v-.1h-.2v-.1h-.1l-.1-.1h-.1V16h-.1l-.1-.1h-.1v-.1h-.1l-.1-.1v-.1h-.1v-.1h-.1v-.1h-.2v-.1h-.1v-.1h-.1V15h-.1a30.5 30.5 0 0 1-.1 0v-.1H3v-.3h-.1v-.1h-.1v-.2h-.1V14h-.1v-.6z" />
            <path fill="#9CADFF"
                d="M2.6 15.7v-.4h.1V15h.1v-.2H3v-.2h.1v-.2h.1v-.1h.1v-.1h.1v-.1a.2.2 0 0 0 .1 0V14h.2v-.1h.1v-.1H4a.1.1 0 0 0 0-.1.1.1 0 0 0 .1 0 .1.1 0 0 0 0-.1h.1v-.1h.1v-.1h.2v-.1h.1v-.1h.1V13h.1a.3.3 0 0 0 .1-.1.3.3 0 0 0 .1 0 .3.3 0 0 0 0-.1.3.3 0 0 0 .1 0 .3.3 0 0 0 0-.1.2.2 0 0 0 .1 0 .3.3 0 0 0 .1-.1h.1a.3.3 0 0 0 0-.1.3.3 0 0 0 .1 0v-.1a.3.3 0 0 0 .1 0h.1a.3.3 0 0 0 0-.1h.1v-.1H6v-.1l.1-.1h.3a.2.2 0 0 0 0-.1h.1a.2.2 0 0 0 .1-.1.2.2 0 0 0 .1 0v-.1h.1l.1-.1H7l.1-.1h.1v-.1h.2l.1-.1h.1v-.1a.3.3 0 0 0 .1 0 .3.3 0 0 0 .1 0 .3.3 0 0 0 0-.1H8V11h.2v-.1h.2l.1-.1h.1l.1-.1h.1l.1-.1h.2v-.1h.2l.1-.1h.2v-.1h.2v-.1h.2V10h.2l.1-.1h.2l.1-.1h.1a1.2 1.2 0 0 0 .1 0v-.1h.2l.1-.1h.2v-.1h.2l.1-.1h.2v-.1h.2l.1-.1h.2l.1-.1h.2l.1-.1h.6v-.1h.3v-.1h.3l.1-.1h.2l.1-.1h.2l.1-.1h.2l.1-.1h.4v-.1h.2a.5.5 0 0 0 .1-.1h.2a.5.5 0 0 0 .1 0A.5.5 0 0 0 16 8h.6l.1-.1h.3v-.1h.3l.1-.1h.4v-.1h.4v-.1h.4v-.1h.2a.7.7 0 0 0 .1 0 .7.7 0 0 0 .1 0 .7.7 0 0 0 0-.1 1 1 0 0 0 .1 0h.1a1 1 0 0 0 .2 0v-.1h.4a.6.6 0 0 0 .1 0 .6.6 0 0 0 0-.1.6.6 0 0 0 .1 0 .6.6 0 0 0 .1 0 .6.6 0 0 0 .2 0V7h.5v-.1h.5v-.1c.6 0 1-.6 1-1.1 0-.7-.5-1.2-1.1-1.2h-.4v.1h-.5v.1H20a.8.8 0 0 0-.2 0 .8.8 0 0 0-.1 0 .8.8 0 0 0 0 .1.6.6 0 0 0-.1 0 .6.6 0 0 0-.1 0 .6.6 0 0 0-.1 0 .6.6 0 0 0-.1 0 .6.6 0 0 0 0 .1.6.6 0 0 0-.2 0 .6.6 0 0 0-.1 0 .6.6 0 0 0-.1 0 .6.6 0 0 0-.1 0 .6.6 0 0 0 0 .1.6.6 0 0 0-.1 0h-.3a1 1 0 0 0 0 .1 1 1 0 0 0-.2 0H18v.1h-.4l-.1.1h-.4l-.1.1h-.4v.1h-.3v.1H16v.1h-.4l-.1.1h-.3V6a.5.5 0 0 0-.1 0h-.5l-.1.1h-.3v.1H14v.1h-.4l-.1.1h-.1l-.3.1H13v.1h-.4v.1h-.3v.1h-.2L12 7h-.2l-.1.1h-.2l-.1.1h-.2v.1H11l-.1.1h-.2v.1h-.3v.1h-.2l-.1.1H10a23.5 23.5 0 0 1-.1 0l-.1.1h-.1a1.3 1.3 0 0 0-.1 0 1.2 1.2 0 0 0 0 .1 1.2 1.2 0 0 0-.2 0V8h-.2l-.1.1H9a1.1 1.1 0 0 0 0 .1 1 1 0 0 0-.1 0h-.1a1 1 0 0 0-.1.1h-.2v.1h-.1a1 1 0 0 1-.1 0 1 1 0 0 1-.1.1H8v.1h-.2l-.1.1a.4.4 0 0 0-.1 0 .4.4 0 0 0-.1.1h-.1a.3.3 0 0 0-.1 0v.1a.4.4 0 0 0-.1 0 .4.4 0 0 0-.1.1.4.4 0 0 0-.1 0h-.1l-.1.1h-.1l-.1.1h-.1l-.1.1h-.1v.1H6v.1h-.2v.1l-.3.1-.1.1h-.1v.1h-.1l-.1.1a.2.2 0 0 0-.1 0 .2.2 0 0 0-.1.1h-.1v.1h-.1l-.1.1h-.1v.1h-.1l-.1.1h-.1l-.1.1a.3.3 0 0 0-.1 0v.1a.3.3 0 0 0 0 .1h-.2v.1h-.1v.1h-.1v.1h-.2v.1h-.1v.1h-.1v.1H3l-.1.1h-.1v.1h-.1l-.2.2v.1h-.1v.1a.1.1 0 0 0-.1 0 .1.1 0 0 0-.1.1.2.2 0 0 0-.1.1l-.1.1-.1.1-.1.1v.1h-.1v.1h-.1v.1h-.1v.1h-.1l-.1.2-.1.1v.1h-.1v.1l-.1.1a.2.2 0 0 0 0 .1.2.2 0 0 0-.1 0v.2H.8v.1l-.2.2v.4H.5v.2l-.1.1a1 1 0 0 0 0 .2v.1H.3v.3a1.1 1.1 0 0 0 0 .3v.4a1.3 1.3 0 0 0 0 .3v.2a1.1 1.1 0 0 0 0 .2.2.2 0 0 0 .1 0v.2h.1v.1l.1.2.1.1v.1H1v.2l.2.2a.1.1 0 0 0 0 .1h.1v.1a88518744319.3 88518744319.3 0 0 1 .1.1 88569239895 88569239895 0 0 0 .1.1h.1v.1h.1v.1l.2.2H2l.1.1h.1v.1h.1v.1h.2a.2.2 0 0 0 0 .1.1.1 0 0 0 .1 0v.1h.1a.2.2 0 0 0 .1 0v.1a.2.2 0 0 0 .1 0l.1.1h.1v.1h.1l.2.1h.1v.1h.2v.1H4v.1l.1.1h.1l.1.1h.2v.1h.2v.1H5v.1h.2l.1.1a.7.7 0 0 0 .1 0 .7.7 0 0 0 .1 0v.1h.2a.7.7 0 0 1 .1 0 .7.7 0 0 1 0 .1H6a36.9 36.9 0 0 1 .1.1h.4v.1h.2l.1.1h.1a1 1 0 0 0 .1 0v.1h.1a1 1 0 0 0 .1 0h.1a.3.3 0 0 0 0 .1.3.3 0 0 0 .1 0h.2l.1.1H8l.1.1h.4v.1h.4l.1.1h.3l.1.1h.4v.1h.4v.1h.5a.4.4 0 0 0 0 .1.4.4 0 0 0 .1 0 .4.4 0 0 0 .1 0 .4.4 0 0 0 .1 0 .4.4 0 0 0 .1 0 .4.4 0 0 0 .1 0 .4.4 0 0 0 .1.1h.1a.4.4 0 0 0 .1 0 .4.4 0 0 0 .1 0 .4.4 0 0 0 .1 0h.1a.4.4 0 0 0 .1.1.4.4 0 0 0 .1 0h.1a.4.4 0 0 0 .1 0 .4.4 0 0 0 .1 0h.1l.1.1a.4.4 0 0 0 .1 0 .4.4 0 0 0 .1 0 .4.4 0 0 0 .1 0 .4.4 0 0 0 .1 0 .4.4 0 0 0 .1 0 .4.4 0 0 0 .1.1h.4a.2.2 0 0 0 .1 0l.1.1h.8v.1h.8l.1.1h.3a.4.4 0 0 0 .2 0h.3l.1.1h.7a.4.4 0 0 0 .1 0 .4.4 0 0 0 .1.1h.1a.4.4 0 0 0 .1 0 .4.4 0 0 0 .1 0h1v.1h1.3l.1.1h.8a.3.3 0 0 0 .4-.3.3.3 0 0 0-.3-.3h-.1a.3.3 0 0 0-.1 0 .3.3 0 0 0-.1 0 .3.3 0 0 0-.1 0 .3.3 0 0 0-.1 0 .3.3 0 0 0-.1-.1H20a.3.3 0 0 0-.1 0 .3.3 0 0 0-.1 0 .3.3 0 0 0-.1 0 .3.3 0 0 0-.1 0 .3.3 0 0 0-.1 0 .3.3 0 0 0-.1 0 .3.3 0 0 0-.2 0 .3.3 0 0 0 0-.1.3.3 0 0 0-.1 0 .3.3 0 0 0-.2 0 .3.3 0 0 0-.1 0 .3.3 0 0 0-.1 0 .3.3 0 0 0-.1 0 .3.3 0 0 0-.2 0 .3.3 0 0 0-.1-.1.3.3 0 0 0-.1 0 .3.3 0 0 0-.1 0 .3.3 0 0 0-.2 0 .3.3 0 0 0-.1 0 .3.3 0 0 0-.2 0 .3.3 0 0 0-.1 0 .3.3 0 0 0-.2-.1h-.1a.5.5 0 0 0-.2 0h-.1a.5.5 0 0 0-.1 0 .5.5 0 0 0-.1-.1.5.5 0 0 0-.1 0 .5.5 0 0 0-.1 0 .5.5 0 0 0-.1 0 .5.5 0 0 0-.1 0 .5.5 0 0 0-.2 0 .5.5 0 0 0 0-.1.5.5 0 0 0-.1 0 .5.5 0 0 0-.1 0 .5.5 0 0 0-.1 0 .4.4 0 0 0-.1 0h-.2a.4.4 0 0 0-.1-.1.4.4 0 0 0-.1 0h-.1a.4.4 0 0 0-.1 0 .4.4 0 0 0-.1 0 .4.4 0 0 0-.1 0v-.1h-.5l-.1-.1H14a.4.4 0 0 0-.1 0h-.1l-.1-.1a.4.4 0 0 0-.1 0 .4.4 0 0 0-.1 0h-.2a.4.4 0 0 0-.1-.1H13a.4.4 0 0 0-.1 0 .4.4 0 0 0 0-.1h-.1a.4.4 0 0 0-.1 0 .4.4 0 0 0-.1 0h-.1a.4.4 0 0 0-.1-.1.4.4 0 0 0-.1 0H12l-.1-.1h-.4l-.1-.1h-.2a1.6 1.6 0 0 0-.2-.1h-.3v-.1h-.1a1.4 1.4 0 0 0-.2 0l-.1-.1H10v-.1h-.3v-.1h-.4v-.1H9l-.1-.1h-.2l-.1-.1h-.2l-.1-.1h-.2V20H8l-.1-.1h-.2a.3.3 0 0 0-.1-.1h-.1a.3.3 0 0 0-.1 0 .3.3 0 0 0 0-.1h-.2a.3.3 0 0 0 0-.1H7a.3.3 0 0 0-.1-.1.3.3 0 0 0-.1 0 .3.3 0 0 0-.1 0 .3.3 0 0 0 0-.1.3.3 0 0 0-.1 0 .3.3 0 0 0-.1 0l-.1-.1h-.1l-.1-.1H6V19h-.4v-.1h-.2a.2.2 0 0 1 0-.1h-.1l-.1-.1H5v-.1h-.2v-.1h-.1l-.1-.1h-.1v-.1h-.1l-.1-.1h-.1V18H4v-.1h-.1v-.1h-.1v-.1h-.2v-.1h-.1v-.1h-.1v-.1h-.1v-.1h-.1v-.1H3v-.4h-.1v-.1h-.1v-.2h-.1v-.2h-.1v-.6z" />
            <path fill="#F5F3E6"
                d="M2.6 18v-.4h.1v-.2h.1v-.2H3a105026486920.1 105026486920.1 0 0 1 0-.1V17h.1v-.2h.1v-.1h.1v-.1h.1v-.1h.1v-.1h.1v-.1h.1v-.1h.1V16H4a.1.1 0 0 0 0-.1.1.1 0 0 0 .1 0 .1.1 0 0 0 0-.1h.1v-.1h.1v-.1h.2v-.1h.1v-.1h.1v-.1h.1a.3.3 0 0 0 .1-.1.3.3 0 0 0 .1 0 .3.3 0 0 0 0-.1.3.3 0 0 0 .1 0 .3.3 0 0 0 0-.1.2.2 0 0 0 .1 0 .3.3 0 0 0 .1-.1h.1a.3.3 0 0 0 0-.1.3.3 0 0 0 .1 0v-.1a.3.3 0 0 0 .1 0h.1a.3.3 0 0 0 0-.1h.1v-.1H6v-.1l.1-.1h.1v-.1h.1l.1-.1h.1a.2.2 0 0 0 .1-.1.2.2 0 0 0 .1 0h.1l.1-.1H7l.1-.1h.1v-.1h.2v-.1h.2v-.1a.3.3 0 0 0 .1 0 .3.3 0 0 0 .1 0 .3.3 0 0 0 0-.1H8v-.1h.2v-.1h.2l.1-.1h.1l.1-.1h.1l.1-.1h.2v-.1h.2l.1-.1h.2v-.1h.2v-.1h.2v-.1h.2l.1-.1h.2a1.4 1.4 0 0 0 .2-.1 1.2 1.2 0 0 0 .1 0V12h.2a11.7 11.7 0 0 1 .2-.1h.1v-.1h.2l.1-.1h.2v-.1h.2l.1-.1h.2l.1-.1h.2l.1-.1h.2v-.1h.4v-.1h.3V11h.3l.1-.1h.2l.1-.1h.2l.1-.1h.2l.1-.1h.4v-.1h.2a.5.5 0 0 0 .1-.1h.1a.5.5 0 0 0 .1 0 .5.5 0 0 0 .1 0 .5.5 0 0 0 .1-.1h.2l.1-.1h.3l.1-.1h.3V10h.3l.1-.1h.3l.1-.1h.4v-.1h.4v-.1h.2a.7.7 0 0 0 .1 0h.1a.7.7 0 0 0 0-.1 1 1 0 0 0 .1 0h.1a1 1 0 0 0 .2 0v-.1h.4a.6.6 0 0 0 .1 0 .6.6 0 0 0 0-.1.6.6 0 0 0 .1 0 .6.6 0 0 0 .1 0 .6.6 0 0 0 .2 0v-.1a3.7 3.7 0 0 0 .2 0h.2v-.1h.5V9c.6 0 1-.6 1-1.1 0-.7-.5-1.2-1.1-1.2h-.4a4.2 4.2 0 0 0-.1.1h-.4L20 7a.8.8 0 0 0-.2 0 .8.8 0 0 0-.1 0 .8.8 0 0 0 0 .1.6.6 0 0 0-.1 0 .6.6 0 0 0-.1 0 .6.6 0 0 0-.1 0 .6.6 0 0 0-.1 0 .6.6 0 0 0 0 .1.6.6 0 0 0-.2 0 .6.6 0 0 0-.1 0 .6.6 0 0 0-.1 0 .6.6 0 0 0-.1 0 .6.6 0 0 0 0 .1.6.6 0 0 0-.1 0h-.3a1 1 0 0 0 0 .1 1 1 0 0 0-.2 0H18v.1h-.4l-.1.1h-.4l-.1.1h-.4v.1h-.3V8h-.7l-.1.1h-.3v.1a.5.5 0 0 0-.1 0H15v.1h-.4l-.1.1h-.3v.1H14v.1h-.4l-.1.1h-.1a1.3 1.3 0 0 0-.3.1H13V9h-.7v.1h-.2l-.1.1h-.2l-.1.1h-.2l-.1.1h-.2v.1H11l-.1.1h-.2v.1h-.3v.1h-.2l-.1.1H10l-.1.1h-.1a1.2 1.2 0 0 0-.2.1h-.1v.1h-.2l-.1.1H9a1.1 1.1 0 0 0 0 .1 1 1 0 0 0-.1 0h-.1a1 1 0 0 0-.1.1h-.2v.1h-.1a1 1 0 0 1-.1 0 1 1 0 0 1-.1.1H8v.1h-.2l-.1.1h-.1a.4.4 0 0 0-.1.1h-.2a.3.3 0 0 0 0 .1.4.4 0 0 0-.1 0 .4.4 0 0 0-.1.1.4.4 0 0 0-.1 0 .4.4 0 0 0-.1 0v.1h-.1l-.1.1h-.1l-.1.1h-.1l-.1.1h-.1v.1H6v.1h-.2v.1l-.3.1-.1.1h-.1v.1h-.1l-.1.1H5a.2.2 0 0 0-.1.1h-.1v.1h-.1l-.1.1h-.1v.1h-.1l-.1.1h-.1a.8.8 0 0 0-.1.1.3.3 0 0 0-.1 0v.1a.3.3 0 0 0 0 .1h-.2v.1h-.1v.1h-.1v.1h-.2v.1h-.1v.1h-.1v.1H3l-.1.1h-.1v.1h-.1l-.2.2v.1h-.1v.1a.1.1 0 0 0-.1 0 .1.1 0 0 0-.1.1.2.2 0 0 0-.1.1l-.1.1-.1.1-.1.1v.1h-.1v.1h-.1v.1h-.1v.1h-.1l-.1.2-.1.1v.1h-.1v.1l-.1.1v.1a.2.2 0 0 0-.1 0v.2H.8v.1l-.2.2v.2l-.1.1v.2l-.1.1a1 1 0 0 0 0 .2v.1H.3v.4a1.1 1.1 0 0 0 0 .3v.4a1.3 1.3 0 0 0 0 .3v.2a1.1 1.1 0 0 0 0 .2l.1.1v.2h.1v.1l.1.2h.1v.2H1v.2l.2.2a.1.1 0 0 0 0 .1h.1v.1h.1a30.5 30.5 0 0 1 0 .1 88569239895 88569239895 0 0 0 .1.1h.1v.1h.1v.1l.2.2H2l.1.1h.1v.1h.1v.1h.2a.1.1 0 0 0 0 .1.1.1 0 0 0 .1 0v.1h.1a.2.2 0 0 0 .1 0v.1a.2.2 0 0 0 .1 0l.1.1h.1v.1h.1l.2.1h.1v.1h.2v.1H4v.1l.1.1h.1l.1.1h.2v.1h.2v.1H5v.1h.2l.1.1a.7.7 0 0 0 .1 0 .7.7 0 0 0 .1 0v.1h.2a.7.7 0 0 1 .1 0 .7.7 0 0 1 0 .1H6a36.9 36.9 0 0 1 .1.1h.4v.1h.2l.1.1h.1a1 1 0 0 0 .1 0v.1h.1a1 1 0 0 0 .1 0 .3.3 0 0 0 .1.1.3.3 0 0 0 .1 0h.2l.1.1H8l.1.1h.4l.1.1h.3l.1.1h.3l.1.1h.4v.1h.4v.1h.5a.4.4 0 0 0 0 .1.4.4 0 0 0 .1 0 .4.4 0 0 0 .1 0 .4.4 0 0 0 .1 0 .4.4 0 0 0 .1 0 .4.4 0 0 0 .1 0 .4.4 0 0 0 .1.1h.1a.4.4 0 0 0 .1 0 .4.4 0 0 0 .1 0 .4.4 0 0 0 .1 0h.1a.4.4 0 0 0 .1.1.4.4 0 0 0 .1 0h.1a.4.4 0 0 0 .1 0 .4.4 0 0 0 .1 0h.1l.1.1a.4.4 0 0 0 .1 0 .4.4 0 0 0 .1 0 .4.4 0 0 0 .1 0 .4.4 0 0 0 .2 0 .4.4 0 0 0 .1.1h.4a.2.2 0 0 0 .1 0h.1v.1h.8v.1h.9v.1h.3a.4.4 0 0 0 .2 0h.3l.1.1h.7a.4.4 0 0 0 .1 0 .4.4 0 0 0 .1.1h.1a.4.4 0 0 0 .1 0 .4.4 0 0 0 .1 0 .4.4 0 0 0 .1 0h.9v.1h1.4v.1h.8a.3.3 0 0 0 .4-.3.3.3 0 0 0-.3-.3h-.1a.3.3 0 0 0-.1 0 .3.3 0 0 0-.1 0 .3.3 0 0 0-.1 0 .3.3 0 0 0-.1 0 .3.3 0 0 0-.1-.1H20a.3.3 0 0 0-.1 0 .3.3 0 0 0-.1 0 .3.3 0 0 0-.1 0 .3.3 0 0 0-.1 0 .3.3 0 0 0-.1 0 .3.3 0 0 0-.1 0 .3.3 0 0 0-.2 0 .3.3 0 0 0 0-.1.3.3 0 0 0-.1 0 .3.3 0 0 0-.2 0 .3.3 0 0 0-.1 0 .3.3 0 0 0-.1 0 .3.3 0 0 0-.1 0 .3.3 0 0 0-.2 0 .3.3 0 0 0-.1-.1.3.3 0 0 0-.1 0 .3.3 0 0 0-.1 0 .3.3 0 0 0-.2 0 .3.3 0 0 0-.1 0 .3.3 0 0 0-.2 0 .3.3 0 0 0-.1 0 .3.3 0 0 0-.2-.1H17a.5.5 0 0 0-.1 0h-.1a.5.5 0 0 0-.1 0 .5.5 0 0 0-.1-.1.5.5 0 0 0-.1 0 .5.5 0 0 0-.1 0 .5.5 0 0 0-.1 0 .5.5 0 0 0-.1 0 .5.5 0 0 0-.2 0 .5.5 0 0 0 0-.1.5.5 0 0 0-.1 0 .5.5 0 0 0-.1 0 .5.5 0 0 0-.1 0 .4.4 0 0 0-.1 0h-.1l-.1-.1h-.1a.4.4 0 0 0-.1 0h-.1a.4.4 0 0 0-.1 0 .4.4 0 0 0-.1 0 .4.4 0 0 0-.1 0V24h-.5l-.1-.1H14a.4.4 0 0 0-.1 0h-.1l-.1-.1a.4.4 0 0 0-.1 0 .4.4 0 0 0-.1 0h-.1a.4.4 0 0 0-.1 0 .4.4 0 0 0-.1-.1H13a.4.4 0 0 0-.1 0 .4.4 0 0 0 0-.1h-.1a.4.4 0 0 0-.1 0 .4.4 0 0 0-.1 0h-.1a.4.4 0 0 0-.1 0 .4.4 0 0 0 0-.1.4.4 0 0 0-.1 0H12l-.1-.1h-.4l-.1-.1h-.2a1.6 1.6 0 0 0-.2-.1h-.3V23h-.1a1.4 1.4 0 0 0-.2 0l-.1-.1H10v-.1h-.3v-.1h-.4v-.1H9l-.1-.1h-.2l-.1-.1h-.2l-.1-.1h-.2v-.1H8l-.1-.1h-.2V22a.3.3 0 0 0-.1 0h-.1a.3.3 0 0 0-.1 0 .3.3 0 0 0 0-.1h-.2a.3.3 0 0 0 0-.1H7a.3.3 0 0 0-.1-.1.3.3 0 0 0-.1 0 .3.3 0 0 0-.1 0 .3.3 0 0 0 0-.1.3.3 0 0 0-.1 0 .3.3 0 0 0-.1 0l-.1-.1h-.1l-.1-.1H6v-.1h-.2v-.1h-.2v-.1h-.2a.2.2 0 0 1 0-.1h-.1l-.1-.1H5v-.1h-.2v-.1h-.1l-.1-.1h-.1v-.1h-.1l-.1-.1h-.1v-.1h-.1l-.1-.1v-.1h-.1V20h-.3v-.1h-.1v-.1h-.1v-.1h-.1v-.1a30.5 30.5 0 0 1-.1 0v-.1H3v-.3h-.1V19h-.1v-.2h-.1v-.2h-.1V18z" />
            <path fill="#F10"
                d="M2.6 20.3v-.4h.1v-.2h.1v-.2H3a105026486920.1 105026486920.1 0 0 1 0-.1v-.1l.1-.1V19h.2v-.1h.1v-.1h.1v-.1h.1v-.1h.1v-.1h.1v-.1H4a.1.1 0 0 0 0-.1.1.1 0 0 0 .1 0v-.1h.1V18h.3v-.1h.1v-.1h.1v-.1h.1a.3.3 0 0 0 .1-.1.3.3 0 0 0 .1 0 .3.3 0 0 0 0-.1.3.3 0 0 0 .1 0 .3.3 0 0 0 0-.1h.1l.1-.1a.3.3 0 0 0 .1 0 .3.3 0 0 0 0-.1.3.3 0 0 0 .1 0V17a.3.3 0 0 0 .1 0 .3.3 0 0 0 .1 0 .3.3 0 0 0 0-.1h.1v-.1H6v-.1l.1-.1h.1v-.1h.1l.1-.1h.1a.2.2 0 0 0 .1-.1.2.2 0 0 0 .1 0v-.1h.1l.1-.1H7l.1-.1h.3v-.1h.2v-.1a.3.3 0 0 0 .1 0 .3.3 0 0 0 .1 0 .3.3 0 0 0 0-.1H8v-.1h.2v-.1h.2v-.1h.2l.1-.1h.1l.1-.1h.2V15h.2l.1-.1h.2v-.1h.2v-.1h.2v-.1h.2l.1-.1h.2l.1-.1h.1a1.2 1.2 0 0 0 .1 0v-.1h.2l.1-.1h.1l.1-.1h.2l.1-.1h.4l.1-.1h.2l.1-.1h.2l.1-.1h.1l.1-.1h.4v-.1h.3v-.1h.3l.1-.1h.2v-.1h.3l.1-.1h.2l.1-.1h.4v-.1h.2a.5.5 0 0 0 .1-.1h.3a.5.5 0 0 0 .1-.1h.3v-.1h.2l.1-.1h.4v-.1h.3l.1-.1h.3l.1-.1h.4V12h.6a.7.7 0 0 0 .1 0 .7.7 0 0 0 .1 0 .7.7 0 0 0 0-.1h.2a1 1 0 0 0 .2 0v-.1h.4a.6.6 0 0 0 .1-.1.6.6 0 0 0 .1 0 .6.6 0 0 0 .1 0 .6.6 0 0 0 .2 0v-.1h.5v-.1h.5v-.1c.6 0 1-.6 1-1.1 0-.7-.5-1.2-1.1-1.2h-.4a4.2 4.2 0 0 0-.1.1h-.4l-.1.1H20a.8.8 0 0 0-.2 0 .8.8 0 0 0-.1 0 .8.8 0 0 0 0 .1.6.6 0 0 0-.1 0 .6.6 0 0 0-.1 0 .6.6 0 0 0-.1 0 .6.6 0 0 0-.1 0 .6.6 0 0 0 0 .1.6.6 0 0 0-.2 0 .6.6 0 0 0-.1 0 .6.6 0 0 0-.1 0 .6.6 0 0 0-.1 0 .6.6 0 0 0 0 .1.6.6 0 0 0-.1 0h-.3a1 1 0 0 0 0 .1 1 1 0 0 0-.2 0H18v.1h-.4l-.1.1H17v.1h-.4v.1h-.3v.1H16v.1h-.4l-.1.1h-.1a1 1 0 0 0-.2 0v.1a.5.5 0 0 0-.1 0H15v.1h-.4v.1h-.4v.1H14v.1h-.4l-.1.1h-.1a1.2 1.2 0 0 0-.3.1H13v.1h-.4v.1h-.3v.1h-.2l-.1.1h-.2l-.1.1h-.2l-.1.1h-.2v.1H11l-.1.1h-.2v.1h-.3v.1h-.2a30.4 30.4 0 0 0-.1.1H10a43.5 43.5 0 0 0-.1 0l-.1.1h-.1a1.2 1.2 0 0 0-.2.1h-.1v.1h-.2l-.1.1H9a1.1 1.1 0 0 0 0 .1 1.1 1.1 0 0 0-.2 0 1 1 0 0 0-.1.1h-.2v.1h-.1a1 1 0 0 1-.1 0 1 1 0 0 1-.1.1H8v.1h-.2l-.1.1h-.1a.4.4 0 0 0-.1 0v.1h-.2a.3.3 0 0 0 0 .1.4.4 0 0 0-.1 0 .4.4 0 0 0-.1.1.4.4 0 0 0-.1 0 .4.4 0 0 0-.1 0v.1h-.1l-.1.1h-.1l-.1.1h-.1l-.1.1h-.1v.1H6v.1h-.2v.1l-.3.1-.1.1h-.1v.1h-.1l-.1.1H5a.2.2 0 0 0-.1.1h-.1v.1h-.2v.1h-.1v.1h-.1l-.1.1h-.1a.3.3 0 0 0-.1.1.3.3 0 0 0-.1 0v.2h-.2v.1h-.1v.1h-.1v.1h-.2v.1h-.1v.1h-.1v.1H3l-.1.1h-.1v.1h-.1l-.2.2v.1h-.1v.1a.1.1 0 0 0-.1 0 .1.1 0 0 0-.1.1.2.2 0 0 0-.1.1L2 17a138342086935.5 138342086935.5 0 0 1-.2.2l-.1.1v.1h-.1v.1h-.1v.1h-.1l-.1.2-.1.1v.1h-.1v.1l-.1.1v.3H.8v.1l-.2.2v.2H.5v.2l-.1.1a1 1 0 0 0 0 .2v.1H.3v.4a1.1 1.1 0 0 0 0 .3v.4a1.3 1.3 0 0 0 0 .2v.3a1.1 1.1 0 0 0 0 .2.2.2 0 0 0 .1 0v.3h.1v.1l.1.2h.1v.2H1v.2l.2.2a.1.1 0 0 0 0 .1h.1v.1a88518744319.3 88518744319.3 0 0 1 .1.1 88569239895 88569239895 0 0 0 .1.1h.1v.1h.1v.1l.2.2H2l.1.1h.1v.1h.1v.1h.2a.1.1 0 0 0 0 .1.1.1 0 0 0 .1 0l.1.1a.2.2 0 0 0 .1 0v.1a.2.2 0 0 0 .1 0l.1.1h.1v.1h.1l.2.1h.1v.1h.2v.1H4v.1l.1.1h.1l.1.1h.2v.1h.2v.1H5v.1h.2a.7.7 0 0 0 .2.1.7.7 0 0 0 .1 0v.1h.2a.7.7 0 0 1 .2.1H6a36.9 36.9 0 0 1 .1 0v.1h.4v.1h.2l.1.1h.1a1 1 0 0 0 .1 0 1 1 0 0 0 .1 0v.1h.1a1 1 0 0 0 .1 0h.1v.1a.3.3 0 0 0 .1 0h.2l.1.1H8l.1.1h.4l.1.1h.3l.1.1h.3l.1.1h.4v.1h.4v.1h.5a.4.4 0 0 0 0 .1.4.4 0 0 0 .1 0 .4.4 0 0 0 .1 0 .4.4 0 0 0 .1 0 .4.4 0 0 0 .1 0 .4.4 0 0 0 .1 0 .4.4 0 0 0 .1.1h.1a.4.4 0 0 0 .1 0 .4.4 0 0 0 .1 0 .4.4 0 0 0 .1 0h.1a.4.4 0 0 0 .1.1.4.4 0 0 0 .1 0h.1a.4.4 0 0 0 .1 0 .4.4 0 0 0 .1 0h.1l.1.1a.5.5 0 0 0 .1 0 .4.4 0 0 0 .1 0 .4.4 0 0 0 .1 0 .4.4 0 0 0 .1 0 .4.4 0 0 0 .1 0 .4.4 0 0 0 .1.1h.4a.2.2 0 0 0 .1 0h.1v.1h.8v.1h.9v.1h.3a.4.4 0 0 0 .2 0h.3l.1.1h.7a.4.4 0 0 0 .1 0 .4.4 0 0 0 .1.1h.1a.4.4 0 0 0 .1 0 .4.4 0 0 0 .1 0h1v.1h1.4v.1h.8a.3.3 0 0 0 .4-.3.3.3 0 0 0-.3-.3h-.1a.3.3 0 0 0-.1 0 .3.3 0 0 0-.1 0 .3.3 0 0 0-.1 0 .3.3 0 0 0-.1 0 .3.3 0 0 0-.1-.1H20a.3.3 0 0 0-.1 0 .3.3 0 0 0-.1 0 .3.3 0 0 0-.1 0 .3.3 0 0 0-.1 0 .3.3 0 0 0-.1 0 .3.3 0 0 0-.1 0 .3.3 0 0 0-.2 0V27a.3.3 0 0 0-.1 0 .3.3 0 0 0-.2 0 .3.3 0 0 0-.1 0 .3.3 0 0 0-.1 0 .3.3 0 0 0-.1 0 .3.3 0 0 0-.2 0 .3.3 0 0 0-.1-.1.3.3 0 0 0-.1 0 .3.3 0 0 0-.1 0 .3.3 0 0 0-.2 0 .3.3 0 0 0-.1 0 .3.3 0 0 0-.2 0 .3.3 0 0 0-.1 0 .3.3 0 0 0 0-.1.3.3 0 0 0-.2 0h-.1a.5.5 0 0 0-.2 0h-.1a.5.5 0 0 0-.1 0 .5.5 0 0 0-.1-.1.5.5 0 0 0-.1 0 .5.5 0 0 0-.1 0 .5.5 0 0 0-.1 0 .5.5 0 0 0-.1 0 .5.5 0 0 0-.2 0 .5.5 0 0 0 0-.1.5.5 0 0 0-.1 0 .5.5 0 0 0-.1 0 .5.5 0 0 0-.1 0 .4.4 0 0 0-.1 0h-.1l-.1-.1h-.1a.4.4 0 0 0-.1 0h-.1a.4.4 0 0 0-.1 0 .4.4 0 0 0-.1 0 .4.4 0 0 0-.1 0v-.1a.4.4 0 0 0-.1 0h-.4l-.1-.1H14a.4.4 0 0 0-.1 0h-.1l-.1-.1a.4.4 0 0 0-.1 0 .4.4 0 0 0-.1 0h-.2a.4.4 0 0 0-.1-.1H13a.4.4 0 0 0-.1 0 .4.4 0 0 0 0-.1h-.1a.4.4 0 0 0-.1 0 .4.4 0 0 0-.1 0h-.1a.4.4 0 0 0-.1-.1.4.4 0 0 0-.1 0H12l-.1-.1h-.4l-.1-.1h-.2a1.6 1.6 0 0 0-.2-.1h-.3v-.1h-.1a1.4 1.4 0 0 0-.2 0l-.1-.1H10v-.1h-.3V25H9v-.1h-.3l-.1-.1h-.2l-.1-.1h-.2v-.1H8l-.1-.1h-.2v-.1a.3.3 0 0 0-.1 0h-.1a.3.3 0 0 0-.1 0 .3.3 0 0 0 0-.1h-.2a.3.3 0 0 0 0-.1H7a.3.3 0 0 0-.1-.1.3.3 0 0 0-.1 0 .3.3 0 0 0-.1 0 .3.3 0 0 0 0-.1.3.3 0 0 0-.1 0 .3.3 0 0 0-.1 0 .2.2 0 0 0 0-.1h-.2l-.1-.1H6v-.1h-.2v-.1h-.2v-.1h-.2a.2.2 0 0 1 0-.1h-.1l-.1-.1H5v-.1h-.2V23h-.1l-.1-.1h-.1v-.1h-.1l-.1-.1h-.1v-.1h-.1l-.1-.1v-.1h-.1v-.1h-.1v-.1h-.2v-.1h-.1V22h-.2v-.1a30.5 30.5 0 0 1-.1 0v-.1H3v-.1l-.1-.1v-.1h-.1v-.1h-.1v-.2h-.1V21h-.1v-.7z" />
        </g>
    </g>
    <defs>
        <clipPath id="a">
            <path fill="#fff" d="M0 0h194.5v28H0z" />
        </clipPath>
    </defs>
</svg>