<svg xmlns="http://www.w3.org/2000/svg" width="148" height="28" fill="none"><path fill="#fff" d="M25.026 17.095c5.279.982 8.888 2.898 8.888 5.108C33.914 25.397 26.4 28 17.12 28S.328 25.421.328 22.203c0-2.21 3.585-4.126 8.888-5.108 2.307.59 5.008.933 7.905.933 2.897 0 5.597-.32 7.905-.933m-2.013-9.358c4.493.737 7.586 2.309 7.586 4.15 0 2.53-6.04 4.594-13.478 4.594-7.439 0-13.479-2.064-13.479-4.618 0-1.817 3.094-3.39 7.587-4.15 1.718.441 3.731.687 5.892.687 2.136.025 4.149-.246 5.892-.663M17.17 0c5.573 0 10.09 1.572 10.09 3.488s-4.517 3.487-10.09 3.487c-5.573 0-10.09-1.571-10.09-3.487C7.08 1.572 11.597 0 17.17 0m38.152 23.088c1.4 0 2.578-.221 3.486-.639.933-.442 1.62-1.032 2.087-1.793a4.648 4.648 0 0 0 .687-2.554c0-.934-.196-1.72-.564-2.383a4.176 4.176 0 0 0-1.473-1.522c-.565-.344-1.203-.565-1.866-.59v-.172a4.543 4.543 0 0 0 1.62-.712c.491-.32.86-.762 1.154-1.277.294-.516.417-1.155.417-1.916 0-.909-.22-1.72-.663-2.432-.441-.712-1.104-1.277-1.988-1.694-.884-.418-1.989-.615-3.315-.615h-7.021v18.323h7.439zm-.81-10.537h-3.29V7.49h3.363c.982 0 1.719.246 2.21.688.49.467.76 1.032.76 1.744a2.6 2.6 0 0 1-.392 1.4c-.27.393-.638.688-1.08.909a3.91 3.91 0 0 1-1.571.319m.294 7.761h-3.56v-5.379h3.658c.688 0 1.277.123 1.768.393.491.246.884.59 1.154 1.032.27.442.417.933.417 1.474 0 .736-.27 1.326-.81 1.793-.565.466-1.424.687-2.627.687m12.791 3.046c.712 0 1.326-.098 1.866-.295.54-.196.982-.466 1.326-.786.368-.32.638-.687.835-1.08h.098v1.89h3.118v-9.185c0-.909-.172-1.67-.491-2.284a4.11 4.11 0 0 0-1.302-1.45 5.486 5.486 0 0 0-1.792-.761c-.638-.172-1.3-.221-1.964-.221-.957 0-1.841.147-2.627.418a5.418 5.418 0 0 0-2.013 1.277 5 5 0 0 0-1.178 2.112l3.02.442c.147-.467.466-.884.932-1.228.467-.344 1.08-.516 1.89-.516.762 0 1.326.172 1.72.565.392.369.613.884.613 1.572v.05c0 .294-.123.54-.344.687-.22.147-.589.245-1.104.32-.516.073-1.154.147-1.965.22-.638.074-1.3.172-1.939.344a6.301 6.301 0 0 0-1.694.688 3.331 3.331 0 0 0-1.178 1.228c-.295.516-.442 1.154-.442 1.916 0 .909.196 1.67.613 2.284.393.614.958 1.08 1.645 1.4a6.967 6.967 0 0 0 2.357.393m.835-2.383c-.687 0-1.228-.147-1.67-.466-.441-.295-.662-.762-.662-1.351 0-.418.098-.762.343-1.032.221-.27.516-.466.884-.614.418-.172.86-.27 1.301-.319l.761-.098c.295-.025.59-.098.884-.148.295-.049.565-.122.81-.196.246-.074.418-.148.516-.246v1.621c0 .516-.123.983-.393 1.4-.27.442-.638.786-1.105 1.032-.466.295-1.03.417-1.67.417m12.202 2.113V4.765h-3.241v18.323zm6.58.27c.711 0 1.35-.098 1.865-.295.54-.196.982-.466 1.326-.786.368-.32.638-.687.835-1.08h.098v1.89h3.142v-9.185c0-.909-.172-1.67-.49-2.284a4.11 4.11 0 0 0-1.302-1.45 5.486 5.486 0 0 0-1.792-.761c-.639-.172-1.301-.221-1.964-.221-.958 0-1.841.147-2.627.418a5.418 5.418 0 0 0-2.013 1.277 4.75 4.75 0 0 0-1.179 2.112l3.02.442c.172-.467.467-.884.933-1.228s1.08-.516 1.89-.516c.761 0 1.326.172 1.719.565.393.369.59.884.59 1.572v.05c0 .294-.124.54-.345.687-.22.147-.589.245-1.104.32-.491.073-1.154.147-1.964.22-.663.074-1.302.172-1.94.344a5.846 5.846 0 0 0-1.67.688 3.149 3.149 0 0 0-1.178 1.228c-.294.516-.417 1.154-.417 1.916 0 .909.196 1.67.614 2.284.392.614.957 1.08 1.645 1.4a6.677 6.677 0 0 0 2.307.393m.859-2.383c-.663 0-1.228-.147-1.67-.466-.442-.295-.638-.762-.638-1.351 0-.418.098-.762.319-1.032.22-.27.516-.466.908-.614.418-.172.86-.27 1.301-.319l.762-.098c.294-.025.589-.098.883-.148.295-.049.565-.122.81-.196.246-.074.418-.148.516-.246v1.621c0 .516-.123.983-.393 1.4-.27.442-.638.786-1.105 1.032-.49.295-1.055.417-1.694.417m12.201 2.113v-8.056c0-.664.123-1.229.393-1.695a2.582 2.582 0 0 1 1.031-1.08 3.217 3.217 0 0 1 1.498-.37c.835 0 1.497.27 1.964.787.466.516.712 1.228.712 2.161v8.253h3.241v-8.744c0-1.105-.197-2.039-.565-2.8-.393-.761-.933-1.351-1.645-1.769-.712-.417-1.547-.614-2.48-.614-1.031 0-1.89.221-2.577.688a4 4 0 0 0-1.523 1.842h-.171V9.358h-3.094v13.754h3.216zm17.431.27c1.154 0 2.161-.221 2.995-.639a5.065 5.065 0 0 0 2.038-1.768 5.455 5.455 0 0 0 .859-2.58h-3.093c-.074.443-.27.885-.54 1.254a2.306 2.306 0 0 1-.958.785c-.392.172-.81.27-1.276.27-.688 0-1.252-.171-1.768-.54-.491-.368-.884-.884-1.154-1.547-.27-.663-.417-1.474-.417-2.407s.147-1.72.417-2.383.663-1.178 1.179-1.522c.491-.369 1.08-.54 1.743-.54.785 0 1.399.22 1.866.662.466.443.761 1.008.884 1.67h3.093c-.074-.982-.368-1.866-.884-2.603a5.016 5.016 0 0 0-2.062-1.72c-.859-.417-1.841-.613-2.971-.613-1.35 0-2.504.295-3.486.909-.982.59-1.768 1.473-2.283 2.505-.54 1.056-.81 2.309-.81 3.709s.27 2.628.785 3.684c.54 1.056 1.277 1.891 2.259 2.505 1.031.614 2.209.909 3.584.909m13.945 0c1.056 0 2.013-.172 2.848-.491a5.25 5.25 0 0 0 2.038-1.376c.54-.59.908-1.302 1.08-2.087l-3.02-.344a2.721 2.721 0 0 1-.638.982c-.295.27-.614.467-1.007.59a3.233 3.233 0 0 1-1.276.196c-.712 0-1.326-.147-1.842-.442a2.991 2.991 0 0 1-1.227-1.302c-.295-.565-.442-1.252-.442-2.063v.074h9.575v-.983c0-1.203-.172-2.235-.516-3.119-.344-.884-.785-1.597-1.375-2.161a5.355 5.355 0 0 0-2.013-1.253 7.18 7.18 0 0 0-2.406-.418c-1.301 0-2.455.295-3.412.91a6.008 6.008 0 0 0-2.259 2.504c-.54 1.057-.81 2.31-.81 3.734 0 1.449.27 2.677.81 3.733s1.301 1.891 2.308 2.456c1.006.565 2.209.86 3.584.86m-3.462-8.548c.025-.49.172-.957.418-1.4.27-.515.663-.933 1.178-1.252a3.105 3.105 0 0 1 1.743-.467c.614 0 1.154.148 1.621.418.466.294.834.663 1.105 1.154.27.491.392 1.032.392 1.67h-6.457zm14.854 8.278v-8.081c0-.59.122-1.105.392-1.547.271-.443.639-.81 1.105-1.057a3.242 3.242 0 0 1 1.572-.393c.27 0 .564.025.859.05.294.049.515.073.638.122V9.212c-.172-.025-.368-.05-.565-.074-.196-.025-.392-.025-.613-.025-.786 0-1.498.221-2.112.639-.613.442-1.031 1.032-1.301 1.842h-.147V9.309h-3.143v13.754h3.315z"/></svg>