<svg xmlns="http://www.w3.org/2000/svg" width="673" height="527" fill="none"><g filter="url(#a)"><circle cx="202" cy="538.1" r="178" fill="#B1BCCC"/></g><g filter="url(#b)"><circle cx="286.9" cy="561" r="178" fill="#FB9950"/><circle cx="286.9" cy="561" r="178" fill="url(#c)"/></g><g filter="url(#d)"><circle cx="490.6" cy="446.6" r="178" fill="#66F9FF"/><circle cx="490.6" cy="446.6" r="178" fill="url(#e)"/></g><mask id="f" width="472" height="551" x="100" y="22" maskUnits="userSpaceOnUse" style="mask-type:alpha"><rect width="472" height="551" x="100" y="22" fill="#D9D9D9" rx="16"/></mask><g mask="url(#f)"><rect width="471" height="550" x="100.5" y="22.5" fill="url(#g)" fill-opacity=".8" stroke="url(#h)" rx="23.5"/></g><g filter="url(#i)"><mask id="j" fill="#fff"><path d="M100 22h472v71.3H100V22Z"/></mask><path fill="#fff" fill-opacity=".1" d="M572 92.6H100V94h472v-1.3Z" mask="url(#j)"/><mask id="k" fill="#fff"><path d="M100 22h236v71.3H100V22Z"/></mask><path fill="#fff" fill-opacity=".1" d="M335.4 22v71.3h1.2V22h-1.2Z" mask="url(#k)"/><path fill="#fff" d="M175.2 63.6V52.4h4c2.5 0 4 1.2 4 3 0 1.3-.8 2.1-2 2.4 1.4.2 2.4 1 2.4 2.6 0 2-1.5 3.2-4.2 3.2h-4.2Zm4.1-9.6H177v3.2h2.3c1.3 0 2-.6 2-1.6s-.7-1.6-2-1.6Zm.1 4.7H177v3.4h2.4c1.5 0 2.3-.6 2.3-1.7 0-1-.8-1.7-2.3-1.7Zm5.8 5V52.3h1.8v11.2h-1.8Zm3.2-9.6v-1.7h8.7v1.7h-3.4v9.5h-1.9v-9.5h-3.4Zm14.2 9.6c-3.3 0-5.3-2.2-5.3-5.7 0-3.4 2-5.7 5.4-5.7 2.6 0 4.4 1.6 4.8 4h-2a2.9 2.9 0 0 0-2.9-2.3c-2.1 0-3.4 1.6-3.4 4s1.3 4.1 3.4 4.1a3 3 0 0 0 3-2.3h1.9c-.4 2.4-2.3 4-5 4Zm16.7-5.7c0 3.3-2.2 5.7-5.5 5.7-3.2 0-5.4-2.4-5.4-5.7 0-3.2 2.2-5.7 5.4-5.7 3.3 0 5.5 2.5 5.5 5.7Zm-9 0c0 2.4 1.4 4.1 3.5 4.1 2.2 0 3.6-1.7 3.6-4 0-2.4-1.4-4.1-3.6-4.1-2 0-3.5 1.7-3.5 4Zm10.6 5.6V52.4h1.8v11.2H221Zm5.7 0h-1.8V52.4h1.7l5.4 8v-8h1.8v11.2h-1.6l-5.5-8v8Z"/><g clip-path="url(#l)"><path fill="#F7931A" d="M261.6 60a10.2 10.2 0 1 1-19.8-4.8 10.2 10.2 0 0 1 19.8 4.9Z"/><path fill="#fff" d="M256.2 56.2c.2-1.4-.9-2.1-2.3-2.6l.5-1.8-1.1-.3-.5 1.8-.9-.2.5-1.8-1.1-.3-.5 1.8-.7-.1-1.5-.4-.3 1.2.8.2c.4 0 .5.4.5.6l-.5 2.1-.8 3s-.2.3-.5.2l-.8-.2-.5 1.3 1.4.3.8.3-.5 1.8 1.2.3.4-1.8.9.2-.5 1.8 1.2.3.4-1.9c2 .4 3.4.3 4-1.5.5-1.4 0-2.2-1-2.7.7-.1 1.2-.6 1.4-1.6Zm-2.6 3.6c-.3 1.3-2.7.6-3.4.4l.6-2.5c.7.2 3.2.6 2.8 2Zm.4-3.6c-.4 1.2-2.3.6-3 .4l.6-2.2c.7.2 2.7.4 2.4 1.8Z"/></g><path fill="#fff" d="M422.2 63.6V52.4h4c2.5 0 4 1.2 4 3 0 1.3-.8 2.1-2 2.4 1.4.2 2.4 1 2.4 2.6 0 2-1.5 3.2-4.2 3.2h-4.2Zm4.1-9.6H424v3.2h2.3c1.3 0 2-.6 2-1.6s-.7-1.6-2-1.6Zm.1 4.7H424v3.4h2.4c1.5 0 2.3-.6 2.3-1.7 0-1-.8-1.7-2.3-1.7Zm6.4 5H431l4.2-11.3h2.2l4.2 11.2h-2l-1-2.7H434l-1 2.7Zm3.4-9.3-1.8 4.9h3.5l-1.7-4.9Zm5.6 5.6h1.8c.1 1.3 1.2 2.2 2.7 2.2 1.3 0 2.3-.6 2.3-1.7 0-1.2-1.2-1.4-3-1.7-1.8-.4-3.6-1-3.6-3.2 0-2 1.6-3.3 4-3.3 2.6 0 4.2 1.4 4.3 3.5h-1.9c-.1-1.1-1-2-2.4-2-1.2 0-2.1.6-2.1 1.7s1.1 1.4 2.9 1.7c1.9.3 3.7 1 3.6 3.1 0 2-1.6 3.4-4.1 3.4-2.8 0-4.5-1.5-4.5-3.7Zm10.3 3.6V52.4h7.3v1.7h-5.5v3h4.5v1.7H454V62h5.7v1.6H452Z"/><g clip-path="url(#m)"><path fill="#0052FF" d="M476.7 67.8a10.2 10.2 0 1 0 0-20.3 10.2 10.2 0 0 0 0 20.3Z"/><path fill="#fff" d="M476.7 64.8a7.2 7.2 0 1 0-7.2-7.8h10.7v1.2h-10.7a7.2 7.2 0 0 0 7.2 6.6Z"/></g><g clip-path="url(#n)"><circle cx="336.1" cy="57.6" r="12.7" fill="#28241D"/><circle cx="336.1" cy="57.6" r="12.4" stroke="#fff" stroke-opacity=".1" stroke-width=".6"/><path fill="#fff" d="m340.7 57.6-5 5-1-1 3.4-3.3h-7.3v-1.4h7.3l-3.4-3.3 1-1 5 5Z"/></g><path fill="#fff" d="M141.2 130.3h-1l3.1-8.4h1.3l3.2 8.4h-1.2l-.8-2.3H142l-.9 2.3Zm2.7-7.3-1.5 4h3l-1.5-4Zm11.5 1c1.3 0 2.3.8 2.3 2.7v3.6h-1v-3.5c0-1.2-.5-1.8-1.4-1.8-1 0-1.7.7-1.7 2v3.3h-1v-3.5c0-1.2-.5-1.8-1.4-1.8-1 0-1.6.8-1.6 2v3.3h-1V124h.8l.2.9c.3-.5.8-1 1.7-1 .9 0 1.6.5 2 1.2.3-.6 1-1.1 2.1-1.1Zm6.3 6.3c-1.8 0-3-1.2-3-3.1 0-1.9 1.2-3.1 3-3.1s3 1.2 3 3.1c0 1.9-1.2 3.1-3 3.1Zm0-.8c1.2 0 2-1 2-2.3 0-1.3-.8-2.3-2-2.3s-2 1-2 2.3c0 1.3.8 2.3 2 2.3Zm8.5-2.3v-3h1v6h-.9l-.1-.8c-.4.5-1 1-2 1-1.3 0-2.4-.8-2.4-2.9v-3.4h1v3.4c0 1.3.6 2 1.6 2 1.1 0 1.8-1 1.8-2.3Zm5.3-3.1c1.4 0 2.5.7 2.5 2.8v3.4h-1v-3.4c0-1.3-.6-2-1.7-2s-1.8 1-1.8 2.3v3h-1v-6h.9v.8c.4-.5 1-1 2.1-1Zm4.2 4.6V125h-1.1v-.9h1v-1.7h1v1.7h1.7v1h-1.6v3.6c0 .5.1.7.7.7h1v.9h-1.1c-1.2 0-1.6-.6-1.6-1.6Zm212.9 1.6-2.5-8.4h1l2 7 2.1-7h1l2 7 2-7h1.1l-2.4 8.4h-1.3l-1.9-6.7-1.9 6.7h-1.3Zm14.4-1h.3v1h-.5c-.9 0-1.1-.4-1.1-1-.4.6-1 1-2.1 1-1.3 0-2.3-.6-2.3-1.8 0-1.2.9-1.9 2.5-1.9h1.8v-.4c0-.8-.6-1.3-1.5-1.3s-1.5.5-1.6 1h-1c.2-1.1 1.2-1.8 2.6-1.8 1.6 0 2.5.8 2.5 2.2v2.7c0 .3.1.4.4.4Zm-1.4-1.5v-.3h-1.9c-.9 0-1.4.3-1.4 1 0 .6.6 1 1.4 1 1.2 0 2-.7 2-1.7Zm2.5 2.5v-8.4h1v8.4h-1Zm2.3 0v-8.4h1v8.4h-1Zm5.1 0c-1.8 0-3-1.2-3-3.1 0-1.9 1.2-3.1 3-3.1 1.6 0 2.8 1 2.8 2.9v.4h-4.8c0 1.2.8 2 2 2 .8 0 1.5-.4 1.7-1.2h1a2.6 2.6 0 0 1-2.7 2.1Zm-1.9-3.7h3.7c-.1-1-.9-1.7-1.9-1.7-.9 0-1.7.7-1.8 1.7Zm6.2 2V125h-1v-.9h1v-1.7h1v1.7h1.6v1h-1.6v3.6c0 .5.2.7.7.7h1v.9h-1c-1.3 0-1.7-.6-1.7-1.6Zm9.8-4.5c1.7 0 2.9 1.1 2.9 3.1 0 1.9-1.2 3.1-3 3.1-1 0-1.7-.4-2-1l-.2 1h-.8v-8.4h1v3.2c.4-.5 1-1 2-1Zm-.1 5.4c1.2 0 2-1 2-2.3 0-1.3-.8-2.3-2-2.3s-2 1-2 2.3c0 1.3.8 2.3 2 2.3Zm9.5-.1h.3v.9h-.5c-.8 0-1-.4-1.1-1-.4.6-1 1-2 1-1.4 0-2.3-.6-2.3-1.8 0-1.2.8-1.9 2.5-1.9h1.8v-.4c0-.8-.6-1.3-1.6-1.3-.8 0-1.4.5-1.5 1h-1c.1-1.1 1.1-1.8 2.6-1.8s2.4.8 2.4 2.2v2.7c0 .3.2.4.4.4Zm-1.3-1.6v-.3h-2c-.8 0-1.3.3-1.3 1 0 .6.5 1 1.3 1 1.2 0 2-.7 2-1.7Zm2.4 2.5v-8.4h1v8.4h-1Zm7.8-1h.3v1h-.6c-.8 0-1-.4-1-1-.5.6-1 1-2.1 1-1.4 0-2.3-.6-2.3-1.8 0-1.2.9-1.9 2.5-1.9h1.8v-.4c0-.8-.6-1.3-1.6-1.3-.8 0-1.4.5-1.5 1h-1c.1-1.1 1.1-1.8 2.6-1.8 1.6 0 2.5.8 2.5 2.2v2.7c0 .3 0 .4.4.4Zm-1.4-1.5v-.3h-2c-.8 0-1.3.3-1.3 1 0 .6.5 1 1.3 1 1.3 0 2-.7 2-1.7Zm5.4-3.7c1.4 0 2.5.7 2.5 2.8v3.4h-1v-3.4c0-1.3-.6-2-1.6-2-1.2 0-1.9 1-1.9 2.3v3h-1v-6h.9l.1.8c.4-.5 1-1 2-1Zm6.4 6.2c-1.8 0-3-1.2-3-3 0-2 1.3-3.2 3-3.2 1.5 0 2.5.8 2.7 2.2h-1c-.2-.9-.8-1.4-1.7-1.4-1.1 0-2 1-2 2.3 0 1.3.9 2.3 2 2.3 1 0 1.5-.5 1.7-1.3h1c-.2 1.3-1.2 2.1-2.7 2.1Zm6.6 0c-1.8 0-3-1.2-3-3.1 0-1.9 1.2-3.1 3-3.1 1.6 0 2.8 1 2.8 2.9v.4h-4.8c0 1.2.8 2 2 2 .8 0 1.5-.4 1.7-1.2h1a2.6 2.6 0 0 1-2.7 2.1Zm-1.9-3.7h3.7c-.1-1-.9-1.7-1.9-1.7-.9 0-1.7.7-1.8 1.7Z" opacity=".5"/><path fill="#fff" d="M479.3 125.9c1 .2 1.6.8 1.6 2 0 1.4-1.2 2.4-3.3 2.4-2 0-3.4-1-3.4-2.8h2.1c0 .8.6 1.2 1.4 1.2.6 0 1-.3 1-1 0-.5-.3-.9-1-.9h-1v-1.6h.8c.8 0 1.2-.4 1.2-1 0-.5-.5-.8-1-.8-.8 0-1.3.4-1.3 1.1h-2c0-1.6 1.3-2.7 3.3-2.7 2 0 3 .9 3 2.3 0 1-.6 1.6-1.4 1.8Zm2.3-2.3V122h6.3v1.3l-3.5 7h-2.3l3.5-6.6h-4Zm7.2 5.6c0-.7.5-1.2 1.2-1.2s1.2.5 1.2 1.2c0 .6-.5 1.1-1.2 1.1s-1.2-.5-1.2-1.1Zm7.6-7.3v6.6h1.9v1.8h-5.9v-1.8h2v-3.3h-1.9v-1.7h1.2c.4 0 .6-.4.6-1v-.6h2.1Zm6.5 2.6c1.7 0 2.9 1.2 2.9 2.9 0 2-1.5 3-3.4 3-2 0-3.2-1.3-3.3-2.9h2.1c.1.7.5 1.2 1.3 1.2.6 0 1.1-.5 1.1-1.3s-.4-1.3-1.2-1.3c-.4 0-.8.2-1.1.8h-2l.2-5h5.8v1.7h-4v1.4c.4-.3.9-.5 1.6-.5Zm6.7 5.8v-8.4h3.3c2 0 3.2.8 3.2 2.2 0 1-.7 1.7-1.7 1.9 1.2 0 2 .7 2 1.9 0 1.4-1.2 2.4-3.3 2.4h-3.5Zm3.3-6.8h-1.1v1.7h1.1c.6 0 1-.3 1-.8s-.4-.9-1-.9Zm.2 3.4h-1.3v1.7h1.3c.6 0 1-.3 1-.9 0-.5-.4-.8-1-.8Zm3.4-3.2V122h6.7v1.8H521v6.6h-2.2v-6.6h-2.3Zm10.8 6.6c-2.5 0-4-1.6-4-4.2s1.5-4.3 4.1-4.3c2 0 3.5 1.3 3.7 3.2h-2.2c-.2-.8-.7-1.4-1.6-1.4-1.2 0-1.8 1-1.8 2.5 0 1.4.6 2.4 1.8 2.4.9 0 1.4-.6 1.6-1.4h2.2c-.2 1.9-1.7 3.2-3.8 3.2Z"/><rect width="392" height="46.5" x="140" y="140.4" fill="#000" fill-opacity=".3" rx="10.2"/><rect width="391.4" height="45.9" x="140.3" y="140.7" stroke="#fff" stroke-opacity=".1" stroke-width=".6" rx="9.9"/><path fill="#fff" d="M155.8 161.2c0-3.2 2.1-4.6 4.7-4.6 2.5 0 4.2 1.2 4.2 3.2 0 3.3-3.3 3.4-8.2 4.3v.7l1.7-.5h6.5v2.3H156V162c1-.1 6.1-.3 6.1-2 0-.4-.2-1-1.5-1-1.5 0-2 .8-2 2.3h-2.7ZM167 164l1.9.5-1.5 5.3-1.9-.5 1.5-5.3Zm3.7 2.6c0-4.2 2.6-6.5 6.3-7.4v-.6l-1.5.5h-5.8v-2.3h8v3.7c-3 1.1-4.1 2.6-4.1 6.1h-2.9Zm7.1-3.6h2.7c0 1 .7 1.4 2.2 1.4 1.3 0 1.8-.5 1.8-1.4 0-1-.6-1.3-1.3-1.3-.7 0-1.3.2-1.9 1l-2.9-1.8v-4.1h8v2.3H181v1l-.5 1.4.5.3c.5-1.7 1.6-2.3 3-2.3 1.6 0 3 1 3 3.4 0 2.6-1.7 3.9-4.4 3.9-2.6 0-4.9-1-4.9-3.8Zm14.4 3.6v-9.8h3.8c2.9 0 4.2.4 4.2 2.4s-1.5 1.8-2.5 2v.5c1.5.1 3.2 0 3.2 2.3s-2.3 2.6-4.9 2.6h-3.8Zm2.7-6.3h1.5c.6 0 1.1.1 1.1-.6 0-.6-.5-.6-1.1-.6h-1.5v1.2Zm0 4h1.5c1.2 0 1.8 0 1.8-.8 0-1-.6-.8-1.8-.8h-1.5v1.6Zm14.7-7.5v2.3h-3.1v7.5h-2.7v-7.5h-3.2v-2.3h9Zm.2 4.9c0-2.9 2-5 5.2-5 2.8 0 4.7 1.4 5 3.9h-2.6c-.3-1.1-1.2-1.6-2.4-1.6-1.5 0-2.6.8-2.6 2.7 0 1.9 1.1 2.7 2.6 2.7 1.2 0 2.1-.5 2.4-1.6h2.6c-.3 2.4-2.2 4-5 4-3.2 0-5.2-2.2-5.2-5.1Z"/><rect width="54.3" height="30" x="469.5" y="148.6" stroke="#fff" stroke-opacity=".1" stroke-width="1.3" rx="9.5"/><g filter="url(#o)"><path fill="#66F9FF" d="M484.8 167.6V160h2.1l2.2 5.7 2-5.7h2.1v7.7h-1.5v-5.1l-2 5.1h-1.4l-2-5.1v5.1h-1.5Zm10.8 0H494l2.9-7.7h2l2.7 7.7h-1.7l-.6-1.7h-3l-.6 1.7Zm2.1-6-1 3h2l-1-3Zm4 6 2.5-4-2.4-3.7h2l1.5 2.5 1.5-2.5h1.9l-2.4 3.8 2.5 4h-2l-1.6-2.7-1.7 2.6h-1.8Z"/></g><path fill="#fff" d="M140.8 215.2v-8.4h5.4v1h-4.3v2.6h3.5v1H142v2.8h4.4v1h-5.5Zm6-7.5v-1h6.5v1h-2.7v7.5h-1v-7.5h-2.8Zm7.6 7.5v-8.4h1v3.6h4.3v-3.6h1v8.4h-1v-3.8h-4.3v3.8h-1Zm16.4-1h.3v1h-.5c-.8 0-1.1-.4-1.1-1-.4.6-1 1-2 1-1.4 0-2.3-.6-2.3-1.8 0-1.2.8-1.9 2.4-1.9h1.8v-.4c0-.8-.5-1.3-1.5-1.3-.8 0-1.4.5-1.5 1h-1c.1-1.1 1-1.8 2.6-1.8 1.5 0 2.4.8 2.4 2.2v2.7c0 .3.1.4.4.4Zm-1.4-1.5v-.3h-1.9c-.8 0-1.3.3-1.3 1 0 .6.5 1 1.3 1 1.2 0 2-.7 2-1.7Zm7.2-2.7v-3.2h1v8.4h-.8l-.2-1c-.4.5-1 1-2 1-1.7 0-3-1.1-3-3.1 0-1.9 1.3-3.1 3-3.1 1 0 1.7.4 2 1Zm-2 4.4c1.2 0 2-1 2-2.3 0-1.3-.8-2.3-2-2.3s-2 1-2 2.3c0 1.3.8 2.3 2 2.3Zm9.2-4.4v-3.2h1v8.4h-.9l-.1-1c-.4.5-1 1-2.1 1-1.7 0-3-1.1-3-3.1 0-1.9 1.3-3.1 3-3.1 1 0 1.7.4 2 1Zm-2 4.4c1.2 0 2-1 2-2.3 0-1.3-.8-2.3-2-2.3s-2 1-2 2.3c0 1.3.8 2.3 2 2.3Zm7.1-5.4h.3v1h-.5c-1.3 0-1.6 1-1.6 2v3.2h-1V209h.9l.1 1c.3-.5.8-1 1.8-1Zm3.6 6.2c-1.8 0-3-1.2-3-3.1 0-1.9 1.2-3.1 3-3.1 1.6 0 2.8 1 2.8 2.9v.4h-4.8c0 1.2.8 2 2 2 .8 0 1.5-.4 1.7-1.2h1a2.6 2.6 0 0 1-2.7 2.1Zm-1.9-3.7h3.7c-.1-1-.9-1.7-1.9-1.7-.9 0-1.7.7-1.8 1.7Zm5.6 1.6h1c0 .8.6 1.3 1.7 1.3.8 0 1.4-.4 1.4-1 0-.7-.6-.8-1.5-.9-1.4-.1-2.5-.4-2.5-1.7 0-1.1 1-1.8 2.4-1.8s2.4.6 2.5 1.9h-1c0-.6-.7-1-1.5-1-.9 0-1.4.3-1.4.8 0 .7.6.8 1.5.9 1.4.2 2.5.4 2.5 1.8 0 1.1-1 1.8-2.4 1.8-1.6 0-2.7-.7-2.7-2Zm5.8 0h1c0 .8.7 1.3 1.7 1.3.9 0 1.5-.4 1.5-1 0-.7-.7-.8-1.6-.9-1.3-.1-2.4-.4-2.4-1.7 0-1.1 1-1.8 2.4-1.8s2.4.6 2.5 1.9h-1c-.1-.6-.7-1-1.5-1-.9 0-1.5.3-1.5.8 0 .7.7.8 1.6.9 1.4.2 2.5.4 2.5 1.8 0 1.1-1.1 1.8-2.5 1.8-1.5 0-2.6-.7-2.7-2Z" opacity=".5"/><rect width="392" height="46.5" x="140" y="225.3" fill="#000" fill-opacity=".3" rx="10.2"/><rect width="391.4" height="45.9" x="140.3" y="225.6" stroke="#fff" stroke-opacity=".1" stroke-width=".6" rx="9.9"/><path fill="#fff" d="M156.3 251.5v-9.8h6.1v1h-5v3.4h4.3v1h-4.3v3.4h5v1h-6.1Zm9.7-.8 2.5-.2v1l-2.7.2c-.6 0-1-.3-1-1v-5.2h-1.5v-1h1.6v-1.7l1.1-.4v2.2h2.2v1H166v5Zm8-6.3c1.6 0 2.6 1 2.6 2.9v4.2h-1.1v-4c0-1.5-.6-2.1-1.8-2.1-1.4 0-2.5 1.2-2.5 3v3.1h-1.1v-10.3h1.1v4.6l-.2.8h.4a2.6 2.6 0 0 1 2.6-2.2Zm9 5.2c0-1.1.6-1.9 2.2-2l2.8-.3c-.1-1.3-.8-2-2-2-1 0-2 .5-2 1.9h-1c0-1.5 1-2.8 3-2.8s3.1 1.3 3.1 3.2v3h1v1H189c-.5 0-.8-.4-.8-.9v-.4l.2-.7h-.4c-.2 1-1 2-2.7 2-2 0-2.3-1.3-2.3-2Zm1-.2c0 .8.6 1.3 1.4 1.3 1.6 0 2.6-1.1 2.6-2.6l-2.6.3c-.9.1-1.3.4-1.3 1Zm14.3 2.1h-1.1v-1l.2-.8h-.3a3 3 0 0 1-2.9 2c-2 0-3.3-1.6-3.3-3.7 0-2 1.3-3.6 3.3-3.6 1.6 0 2.6.9 2.9 2h.3l-.2-.8v-4.4h1.2v10.3Zm-1.1-3.5c0-1.8-1.2-2.6-2.6-2.6-1.5 0-2.5.8-2.5 2.6 0 1.9 1 2.7 2.5 2.7 1.4 0 2.6-.8 2.6-2.7Zm10.3 3.5h-1.2v-1l.2-.8h-.3c-.3 1-1.3 2-2.8 2-2 0-3.4-1.6-3.4-3.7 0-2 1.3-3.6 3.4-3.6 1.5 0 2.5.9 2.8 2h.3l-.2-.8v-4.4h1.2v10.3Zm-1.2-3.5c0-1.8-1.2-2.6-2.6-2.6-1.5 0-2.5.8-2.5 2.6 0 1.9 1 2.7 2.5 2.7 1.4 0 2.6-.8 2.6-2.7Zm3.1 3.5v-6.1c0-.7.4-1 1-1l3.9.2v1l-3.7-.2v6.1h-1.2Zm5.5-3.5c0-2.3 1.4-3.6 3.3-3.6 2 0 3.3 1.3 3.3 3.4v.5H216c0 1.3.7 2.4 2.4 2.4 1.1 0 2-.6 2.2-1.6h1.1c-.3 1-1 2.6-3.3 2.6-2.5 0-3.5-1.7-3.5-3.7Zm1-.6h4.5c0-1.1-.8-2-2.2-2-1.3 0-2.2.9-2.2 2Zm12.9 2.3c0 1-.7 2-2.7 2-2.3 0-3.2-1-3.2-2.7h1.1c0 1.2.7 1.7 2 1.7 1.1 0 1.7-.2 1.7-1 0-.9-1-1-2.1-1.4-1.3-.4-2.4-.8-2.4-2 0-1.1 1-1.9 2.5-1.9 2.2 0 2.9 1.2 2.9 2.4h-1.2c0-1-.6-1.4-1.7-1.4-.7 0-1.4.2-1.4.8 0 .7.5.9 1.6 1.3 1.4.4 2.9.7 2.9 2.2Zm7 0c0 1-.7 2-2.8 2-2.2 0-3.2-1-3.2-2.7h1.2c0 1.2.7 1.7 2 1.7 1.1 0 1.6-.2 1.6-1 0-.9-1-1-2-1.4-1.4-.4-2.4-.8-2.4-2 0-1.1.9-1.9 2.5-1.9 2.2 0 2.8 1.2 2.8 2.4h-1.1c0-1-.6-1.4-1.7-1.4-.8 0-1.4.2-1.4.8 0 .7.5.9 1.6 1.3 1.4.4 2.9.7 2.9 2.2Z"/><path fill="#fff" d="M141.8 308.8h-1v-8.4h1l4.5 6.5v-6.5h1v8.4h-1l-4.5-6.5v6.5Zm9.8 0c-1.8 0-3-1.2-3-3 0-2 1.2-3.2 2.9-3.2s2.8 1 2.9 2.9v.4h-4.8v.1c0 1.2.8 2 2 2 .8 0 1.5-.5 1.7-1.3h1a2.6 2.6 0 0 1-2.7 2.2Zm-2-3.7h3.7c0-1-.8-1.6-1.8-1.6s-1.7.6-1.8 1.6Zm6.3 2.1v-3.6h-1.1v-1h1V301h1v1.7h1.7v.9h-1.6v3.6c0 .5.2.7.7.7h1v.9h-1.1c-1.2 0-1.6-.5-1.6-1.6Zm5 1.6-2-6.1h1l1.5 5 1.6-5h1l1.4 5 1.6-5h1l-2 6h-1l-1.6-4.5-1.5 4.6h-1Zm10.5 0c-1.8 0-3-1.2-3-3 0-2 1.2-3.2 3-3.2s3 1.3 3 3.1c0 1.9-1.2 3.2-3 3.2Zm0-.8c1.2 0 2-1 2-2.3 0-1.3-.8-2.2-2-2.2s-2 1-2 2.2c0 1.3.8 2.3 2 2.3Zm7-5.3h.3v1h-.5c-1.3 0-1.6 1-1.6 2v3h-1v-6h.8l.2.9c.3-.5.7-1 1.8-1Zm1.1 6v-8.3h1v5.5l3.1-3.2h1.2l-2.4 2.5 2.6 3.6h-1.2l-2-2.9-1.3 1.3v1.6h-1Zm8.7-5.1v-1h1v-.6c0-1 .5-1.6 1.7-1.6h1v.9h-1c-.5 0-.6.2-.6.7v.7h1.7v.9h-1.7v5.2h-1v-5.2h-1.1Zm7 5.3c-1.8 0-3-1.3-3-3.2 0-1.8 1.2-3.1 2.9-3.1s2.9 1 2.9 2.9v.4h-4.8v.1c0 1.2.8 2 2 2 .8 0 1.5-.5 1.7-1.3h1a2.6 2.6 0 0 1-2.7 2.2Zm-2-3.8h3.7c0-1-.8-1.6-1.8-1.6-.9 0-1.7.6-1.8 1.6Zm8.7 3.8c-1.8 0-3-1.3-3-3.2 0-1.8 1.2-3.1 3-3.1 1.6 0 2.8 1 2.8 2.9v.4h-4.8v.1c0 1.2.8 2 2 2 .8 0 1.5-.5 1.7-1.3h1a2.6 2.6 0 0 1-2.7 2.2ZM200 305h3.7c-.1-1-.9-1.6-1.9-1.6-.9 0-1.7.6-1.8 1.6Z" opacity=".5"/><path fill="#fff" d="M485.6 308.9c-2 0-3.3-1.7-3.3-4.1v-.4c0-2.4 1.3-4 3.3-4 2 0 3.3 1.6 3.3 4v.4c0 2.4-1.3 4-3.3 4Zm0-1.5c1 0 1.5-1 1.5-2.7v-.2c0-1.6-.5-2.8-1.5-2.8s-1.5 1.2-1.5 2.8v.2c0 1.6.5 2.7 1.5 2.7Zm4 .5c0-.6.5-1 1-1 .7 0 1.1.4 1.1 1 0 .5-.4 1-1 1a1 1 0 0 1-1-1Zm6.2 1c-2 0-3.3-1.7-3.3-4.1v-.4c0-2.4 1.2-4 3.3-4 2 0 3.2 1.6 3.2 4v.4c0 2.4-1.2 4-3.2 4Zm0-1.5c1 0 1.5-1 1.5-2.7v-.2c0-1.6-.5-2.8-1.5-2.8s-1.6 1.2-1.6 2.8v.2c0 1.6.6 2.7 1.6 2.7Zm8.2-7v7h2v1.4h-5.7v-1.5h2v-3.9h-1.9v-1.3h1.3c.4 0 .6-.4.6-.9v-.8h1.7Zm6.3 8.4v-8.4h3.2c1.9 0 3 .8 3 2.2 0 1-.6 1.7-1.6 1.9 1.2.1 2 .7 2 1.9 0 1.5-1.2 2.4-3.3 2.4h-3.3Zm3.2-7h-1.4v2h1.4c.8 0 1.2-.3 1.2-1 0-.6-.4-1-1.2-1Zm.1 3.4h-1.5v2.2h1.5c.9 0 1.4-.4 1.4-1 0-.8-.5-1.2-1.4-1.2Zm3.3-3.3v-1.5h6.7v1.5h-2.4v6.9h-1.8v-6.9h-2.5Zm10.8 7c-2.5 0-4-1.7-4-4.3 0-2.6 1.5-4.3 4-4.3 2 0 3.5 1.3 3.7 3h-1.8a2 2 0 0 0-2-1.5c-1.3 0-2.1 1.2-2.1 2.8 0 1.6.8 2.7 2.2 2.7 1 0 1.7-.6 1.9-1.5h1.8c-.2 1.8-1.7 3-3.7 3Z"/><path fill="#fff" d="M140.8 334.8v-8.4h1.3l3 7 3-7h1.2v8.4h-1v-6.6l-2.8 6.6h-.9l-2.8-6.6v6.6h-1Zm10.5-7.2a.6.6 0 0 1-.6-.6c0-.4.3-.6.6-.6.4 0 .7.2.7.6 0 .4-.3.6-.7.6Zm-.5 7.2v-6.1h1v6h-1Zm5.4-6.2c1.3 0 2.4.8 2.4 2.8v3.4h-1v-3.4c0-1.2-.5-1.9-1.6-1.9-1.2 0-1.9.9-1.9 2.2v3h-1v-6h1v.8c.4-.5 1-.9 2-.9Zm4.1 4.6v-3.6h-1v-1h1V327h1v1.7h1.6v.9h-1.6v3.6c0 .5.2.7.7.7h1v.9h-1c-1.2 0-1.7-.5-1.7-1.6Zm4-5.6a.6.6 0 0 1-.6-.6c0-.4.3-.6.7-.6.3 0 .6.2.6.6 0 .4-.3.6-.6.6Zm-.4 7.2v-6.1h1v6h-1Zm5.3-6.2c1.4 0 2.5.8 2.5 2.8v3.4h-1v-3.4c0-1.2-.6-1.9-1.7-1.9s-1.8.9-1.8 2.2v3h-1v-6h.8l.2.8c.3-.5 1-.9 2-.9Zm8.5 1.1.2-1h.8v5.8c0 1.8-1 2.8-3 2.8-1.6 0-2.7-.8-2.8-2.1h1c.2.8.8 1.2 1.9 1.2 1.3 0 2-.6 2-2v-.7c-.5.7-1.1 1.2-2.2 1.2-1.6 0-2.9-1.2-2.9-3.2a3 3 0 0 1 3-3.1c1 0 1.7.4 2 1.1Zm-2 4.3c1.2 0 2-1 2-2.2 0-1.4-.8-2.3-2-2.3s-2 .9-2 2.2c0 1.4.8 2.3 2 2.3Zm6.9-4.4v-1h1v-.6c0-1 .5-1.6 1.7-1.6h1v.9h-1c-.5 0-.6.2-.6.7v.7h1.7v.9h-1.7v5.2h-1v-5.2h-1.1Zm7 5.3c-1.8 0-3-1.3-3-3.2 0-1.8 1.2-3.1 2.9-3.1s2.9 1 2.9 2.9v.4h-4.8v.1c0 1.2.8 2 2 2 .8 0 1.5-.5 1.7-1.3h1a2.6 2.6 0 0 1-2.7 2.2Zm-2-3.8h3.7c0-1-.8-1.6-1.8-1.6-.9 0-1.7.6-1.8 1.6Zm8.7 3.8c-1.8 0-3-1.3-3-3.2 0-1.8 1.2-3.1 3-3.1 1.6 0 2.8 1 2.8 2.9v.4h-4.8v.1c0 1.2.8 2 2 2 .8 0 1.5-.5 1.7-1.3h1a2.6 2.6 0 0 1-2.7 2.2Zm-1.9-3.8h3.7c-.1-1-.9-1.6-1.9-1.6-.9 0-1.7.6-1.8 1.6Z" opacity=".5"/><path fill="#fff" d="M474.8 332.4h-1.3c0-1.4.5-2.1 1.5-2.1s1.3.6 1.8.6c.4 0 .6-.2.6-.6h1.3c0 1.4-.5 2.1-1.5 2.1s-1.3-.6-1.8-.6-.6.2-.6.6Zm11 2.5c-2 0-3.3-1.7-3.3-4.1v-.4c0-2.4 1.2-4 3.3-4 2 0 3.2 1.6 3.2 4v.4c0 2.4-1.2 4-3.2 4Zm0-1.5c1 0 1.5-1 1.5-2.7v-.2c0-1.6-.5-2.8-1.5-2.8s-1.6 1.2-1.6 2.8v.2c0 1.6.5 2.7 1.6 2.7Zm4 .5c0-.6.4-1 1-1s1 .4 1 1c0 .5-.4 1-1 1a1 1 0 0 1-1-1Zm6.1 1c-2 0-3.2-1.7-3.2-4.1v-.4c0-2.4 1.2-4 3.2-4s3.3 1.6 3.3 4v.4c0 2.4-1.2 4-3.3 4Zm0-1.5c1 0 1.6-1 1.6-2.7v-.2c0-1.6-.6-2.8-1.6-2.8s-1.5 1.2-1.5 2.8v.2c0 1.6.5 2.7 1.5 2.7Zm8.2-7v7h2v1.4h-5.7v-1.5h2v-3.9h-1.8v-1.3h1.2c.4 0 .6-.4.6-.9v-.8h1.7Zm6.3 8.4v-8.4h3.2c2 0 3 .8 3 2.2 0 1-.5 1.7-1.5 1.9 1.1.1 1.9.7 1.9 1.9 0 1.5-1.2 2.4-3.2 2.4h-3.4Zm3.3-7h-1.5v2h1.5c.7 0 1.2-.3 1.2-1 0-.6-.5-1-1.2-1Zm0 3.4h-1.5v2.2h1.6c.8 0 1.3-.4 1.3-1 0-.8-.5-1.2-1.3-1.2Zm3.4-3.3v-1.5h6.7v1.5h-2.5v6.9h-1.8v-6.9h-2.4Zm10.7 7c-2.5 0-4-1.7-4-4.3 0-2.6 1.6-4.3 4.1-4.3 2 0 3.4 1.3 3.6 3h-1.8a2 2 0 0 0-1.9-1.5c-1.3 0-2.1 1.2-2.1 2.8 0 1.6.8 2.7 2.1 2.7 1 0 1.7-.6 2-1.5h1.7c-.2 1.8-1.6 3-3.7 3Z"/><path fill="#fff" d="m143.3 357.7-3.2-5.3h1.2l2.5 4.2 2.5-4.2h1.2l-3.2 5.3v3h-1v-3Zm6.7 3.2c-1.7 0-3-1.3-3-3.2a3 3 0 0 1 3-3.1c1.8 0 3 1.3 3 3.1 0 1.9-1.2 3.2-3 3.2Zm0-1c1.3 0 2-.9 2-2.2 0-1.3-.7-2.2-2-2.2-1.2 0-2 1-2 2.2 0 1.3.8 2.3 2 2.3Zm8.5-2.2v-3h1v6h-.9l-.1-.7c-.4.4-1 .9-2 .9-1.3 0-2.4-.8-2.4-2.8v-3.4h1v3.3c0 1.3.6 2 1.6 2 1.1 0 1.8-.9 1.8-2.3Zm6.9 3-2-6h1l1.5 5 1.6-5h1l1.5 5 1.6-5h1l-2 6h-1.1l-1.5-4.5-1.6 4.6h-1Zm8.4-7a.6.6 0 0 1-.6-.7c0-.4.3-.6.6-.6.4 0 .7.2.7.6 0 .4-.3.6-.7.6Zm-.5 7v-6h1v6h-1Zm2.4 0v-8.3h1v8.4h-1Zm2.3 0v-8.3h1v8.4h-1Zm8.3-6h.3v1h-.5c-1.3 0-1.6 1-1.6 2v3h-1v-6h.8l.2.9c.3-.5.7-1 1.8-1Zm3.6 6.2c-1.8 0-3-1.3-3-3.2 0-1.8 1.2-3.1 2.9-3.1s2.8 1 2.9 2.9v.4h-4.8v.1c0 1.2.8 2 2 2 .8 0 1.5-.5 1.7-1.3h1a2.6 2.6 0 0 1-2.7 2.2Zm-2-3.8h3.7c0-1-.8-1.6-1.8-1.6s-1.7.6-1.8 1.6Zm8.7 3.8c-1.8 0-3-1.2-3-3.2 0-1.8 1.2-3.1 3-3.1 1.5 0 2.4.8 2.7 2.2h-1c-.2-.8-.8-1.3-1.7-1.3-1.2 0-2 1-2 2.2 0 1.4.8 2.3 2 2.3.8 0 1.4-.5 1.6-1.3h1a2.5 2.5 0 0 1-2.6 2.2Zm6.6 0c-1.9 0-3-1.3-3-3.2 0-1.8 1.1-3.1 2.8-3.1 1.8 0 2.9 1 3 2.9v.4h-4.8v.1c0 1.2.7 2 1.9 2 .9 0 1.5-.5 1.7-1.3h1a2.6 2.6 0 0 1-2.6 2.2Zm-2-3.8h3.7c-.1-1-.8-1.6-1.8-1.6s-1.8.6-1.9 1.6Zm6.4-3.5a.6.6 0 0 1-.7-.6c0-.4.3-.6.7-.6.3 0 .6.2.6.6 0 .4-.3.6-.6.6Zm-.5 7.2v-6.1h1v6h-1Zm4 0-2.3-6.1h1l1.9 5 1.8-5h1l-2.2 6H211Zm6.7 0c-1.8 0-3-1.2-3-3 0-2 1.2-3.2 3-3.2 1.6 0 2.8 1 2.8 2.9v.4h-4.8v.1c0 1.2.8 2 2 2 .8 0 1.5-.5 1.7-1.3h1a2.6 2.6 0 0 1-2.7 2.2Zm-1.9-3.7h3.7c-.1-1-.9-1.6-1.9-1.6-.9 0-1.7.6-1.8 1.6Z" opacity=".5"/><path fill="#fff" d="M480.6 360.9c-2 0-3.3-1.7-3.3-4.1v-.4c0-2.4 1.3-4 3.3-4 2 0 3.3 1.6 3.3 4v.4c0 2.4-1.3 4-3.3 4Zm0-1.5c1 0 1.5-1 1.5-2.7v-.2c0-1.6-.5-2.8-1.5-2.8s-1.5 1.2-1.5 2.8v.2c0 1.6.5 2.7 1.5 2.7Zm4 .5c0-.6.5-1 1-1 .7 0 1.1.4 1.1 1 0 .5-.4 1-1 1a1 1 0 0 1-1-1Zm6.2 1c-2 0-3.3-1.7-3.3-4.1v-.4c0-2.4 1.2-4 3.3-4 2 0 3.2 1.6 3.2 4v.4c0 2.4-1.2 4-3.2 4Zm0-1.5c1 0 1.5-1 1.5-2.7v-.2c0-1.6-.5-2.8-1.5-2.8s-1.6 1.2-1.6 2.8v.2c0 1.6.6 2.7 1.6 2.7Zm7.2 1.5c-2 0-3.3-1.7-3.3-4.1v-.4c0-2.4 1.2-4 3.3-4 2 0 3.2 1.6 3.2 4v.4c0 2.4-1.2 4-3.2 4Zm0-1.5c1 0 1.5-1 1.5-2.7v-.2c0-1.6-.5-2.8-1.5-2.8s-1.6 1.2-1.6 2.8v.2c0 1.6.5 2.7 1.6 2.7Zm7.6-.4v-3h-1v-1.4h1V353h1.7v1.7h1.4v1.5h-1.4v2.7c0 .4.1.6.6.6h.8v1.4h-1.4c-1.1 0-1.7-.6-1.7-1.8Zm4 1.8v-8.4h3.2c2 0 3 .8 3 2.2 0 1-.5 1.7-1.5 1.9 1.1.1 1.9.7 1.9 1.9 0 1.5-1.2 2.4-3.2 2.4h-3.4Zm3.3-7h-1.5v2h1.5c.7 0 1.2-.3 1.2-1 0-.6-.5-1-1.2-1Zm0 3.4h-1.5v2.2h1.6c.9 0 1.3-.4 1.3-1 0-.8-.5-1.2-1.3-1.2Zm3.4-3.3v-1.5h6.7v1.5h-2.5v6.9h-1.8v-6.9h-2.4Zm10.7 7c-2.4 0-4-1.7-4-4.3 0-2.6 1.6-4.3 4.2-4.3 2 0 3.4 1.3 3.6 3h-1.9c-.2-.8-.8-1.5-1.8-1.5-1.4 0-2.2 1.2-2.2 2.8 0 1.6.8 2.7 2.1 2.7 1 0 1.7-.6 2-1.5h1.8c-.2 1.8-1.7 3-3.8 3Z"/><rect width="392" height="41.5" x="140" y="405.8" fill="url(#p)" rx="10.2"/><rect width="390.7" height="40.2" x="140.6" y="406.4" stroke="#fff" stroke-opacity=".1" stroke-width="1.3" rx="9.5"/><g filter="url(#q)"><path fill="#000" d="M305.6 431.6c-3 0-4.7-2-4.7-5s1.8-5 4.8-5c2.4 0 4.1 1.6 4.3 3.8h-2.6c-.2-1-.8-1.6-1.8-1.6-1.3 0-2.1 1.1-2.1 2.8 0 1.7.8 2.9 2.1 2.9 1 0 1.6-.7 1.8-1.6h2.6c-.2 2.1-2 3.7-4.4 3.7Zm14.9-5c0 2.9-2 5-5 5s-5-2.1-5-5c0-2.8 2-5 5-5s5 2.2 5 5Zm-7.3 0c0 1.7.9 2.9 2.3 2.9s2.3-1.2 2.3-2.9c0-1.6-.9-2.8-2.3-2.8s-2.3 1.2-2.3 2.8Zm11 5h-2.6v-9.9h2.3l3.6 5.4v-5.4h2.5v9.8h-2.3l-3.6-5.4v5.4Zm6.9-7.7v-2.2h7.9v2.2h-2.7v7.6h-2.6V424h-2.6Zm8.9 7.6v-9.8h2.6v9.8H340Zm6.7 0H344v-9.8h2.4l3.5 5.4v-5.4h2.6v9.8h-2.4l-3.5-5.4v5.4Zm7.3-4.2v-5.6h2.6v5.7c0 1.3.5 2 1.6 2 1.2 0 1.6-.7 1.6-2v-5.7h2.6v5.6c0 2.7-1.4 4.3-4.2 4.3-2.7 0-4.2-1.6-4.2-4.3Zm9.9 4.2v-9.8h6.7v2.2h-4.2v1.7h3.4v2h-3.4v1.7h4.4v2.2h-7Z"/></g><path fill="#fff" d="M169.4 477.8v.7h-2.8v-.7h2.8Zm-2-1.3h.8v5.2l.1.5.3.2.3.1h.4l.2.7a1.9 1.9 0 0 1-1.3 0c-.3-.1-.4-.3-.6-.5l-.2-.8v-5.4Zm3.5 6.7V476h2.5c.5 0 1 0 1.3.2.3.2.6.4.7.7.2.3.3.6.3 1l-.2.8-.4.5a2 2 0 0 1-.6.2l.6.3.6.6c.2.3.2.6.2 1s0 .7-.2 1c-.2.3-.4.5-.8.7-.4.2-.8.2-1.4.2H171Zm.9-.7h1.7c.6 0 1-.1 1.2-.4.3-.2.4-.5.4-.8 0-.2 0-.5-.2-.7l-.5-.5-.8-.2h-1.8v2.6Zm0-3.3h1.6c.3 0 .5 0 .7-.2.2 0 .4-.2.5-.4.2-.2.2-.4.2-.7 0-.3-.1-.6-.3-.8-.2-.2-.6-.3-1-.3h-1.7v2.4Zm5.2-2.4v-.8h5.4v.8h-2.2v6.4h-1v-6.4H177Zm12.3 1.4h-.8a1.8 1.8 0 0 0-.8-1.1 2 2 0 0 0-.6-.3 2.4 2.4 0 0 0-1.9.2l-.8 1c-.2.4-.3 1-.3 1.6 0 .6 0 1.2.3 1.6.2.4.5.8.8 1l1.2.3h.7l.6-.4a1.9 1.9 0 0 0 .8-1.1h.8c0 .3-.1.7-.3 1a2.7 2.7 0 0 1-1.5 1.2 3.3 3.3 0 0 1-2.7-.3 3 3 0 0 1-1.2-1.3c-.2-.6-.4-1.2-.4-2s.2-1.4.4-2c.3-.5.7-1 1.2-1.3a3.3 3.3 0 0 1 2.7-.3 2.8 2.8 0 0 1 1.5 1.2c.2.3.3.7.3 1Zm4.2 5v-5.4h.8v5.4h-.8Zm.4-6.3c-.2 0-.3 0-.4-.2a.5.5 0 0 1-.2-.4c0-.1 0-.3.2-.4l.4-.2.4.2.2.4c0 .2 0 .3-.2.4l-.4.2Zm5.8 2.1-.7.2-.3-.3a1 1 0 0 0-.3-.3l-.6-.2c-.4 0-.6.1-.9.3-.2.1-.3.3-.3.6 0 .2 0 .3.2.4.2.2.4.3.7.3l.9.2c.4.2.8.3 1 .6.3.2.4.5.4 1 0 .2 0 .5-.3.8-.1.2-.4.4-.7.5a2 2 0 0 1-1.1.3c-.6 0-1-.2-1.4-.4-.4-.2-.6-.6-.7-1l.8-.3c0 .3.2.6.4.7l.9.2c.4 0 .7 0 .9-.2l.3-.6c0-.2 0-.4-.2-.5l-.6-.3-.9-.2c-.5-.1-.8-.3-1-.6-.3-.2-.4-.5-.4-.9 0-.3 0-.6.2-.8l.7-.6 1-.2c.6 0 1 .1 1.3.4.4.2.6.5.7 1Zm5.8 4.4c-.4 0-.7 0-1-.2-.2-.2-.5-.3-.6-.6-.2-.2-.3-.5-.3-.9 0-.3 0-.6.2-.8l.5-.4.7-.3a8.2 8.2 0 0 1 1.5-.2l.5-.1.1-.3c0-.4 0-.7-.2-.9l-.9-.2c-.4 0-.7 0-1 .2l-.4.6-.8-.3.5-.8.8-.4a3.2 3.2 0 0 1 1.5 0l.6.2.6.6.2 1v3.6h-.9v-.7l-.3.4-.5.3a2 2 0 0 1-.8.2Zm.1-.8c.3 0 .6 0 .9-.2a1.3 1.3 0 0 0 .6-1.1v-.8l-.2.1a4 4 0 0 1-.8.2 17 17 0 0 0-1 .2 1 1 0 0 0-.5.2l-.1.5c0 .3 0 .6.3.7l.8.2Zm10.2-6.6v7.2h-.9V477l-1.9 1v-1l1.8-1.1h.9Zm6.1 3.2v.8h-3.2v-.8h3.2Zm5-3.2v7.2h-1V477l-1.7 1.2v-1l1.8-1.1h.9Zm5.8 7.2v-5.4h.8v.8c.2-.3.3-.5.6-.6l.9-.3h.4v.9a2.4 2.4 0 0 0-.5 0h-.7l-.5.5-.2.7v3.4h-.8Zm5.8.2c-.5 0-1-.2-1.3-.4-.4-.2-.7-.6-1-1l-.2-1.4c0-.6 0-1 .3-1.5.2-.4.5-.8.9-1 .3-.3.8-.4 1.2-.4.3 0 .6 0 .9.2.3 0 .5.2.7.4.3.2.5.5.6.9l.2 1.2v.4h-4.2v-.7h3.3l-.1-.8a1.4 1.4 0 0 0-1.4-.8c-.3 0-.6 0-.8.2l-.6.7-.2.8v.5l.2 1 .6.7 1 .2h.5l.5-.4.3-.4.8.2c0 .3-.2.5-.4.7a2 2 0 0 1-.8.5l-1 .2Zm3.6 1.9v-7.5h.8v.9l.3-.4.5-.4.9-.2a2.2 2.2 0 0 1 2 1.3l.3 1.5c0 .6-.1 1.1-.3 1.5a2 2 0 0 1-.8 1c-.4.2-.8.4-1.2.4l-.9-.2-.5-.4-.2-.4h-.1v2.9h-.8Zm.8-4.8c0 .4 0 .8.2 1.1 0 .3.3.6.5.7.2.2.5.3.9.3.3 0 .6 0 .8-.3l.6-.7.1-1-.1-1.1c-.2-.3-.3-.6-.6-.8l-.8-.2a1.4 1.4 0 0 0-1.4 1 3 3 0 0 0-.2 1Zm5.3 2.7v-5.4h.8v.8c.1-.3.3-.5.6-.6.2-.2.5-.3.8-.3h.5v.9a2.4 2.4 0 0 0-.5 0h-.7l-.5.5-.2.7v3.4h-.8Zm5.8.2c-.5 0-1-.2-1.4-.4-.3-.2-.6-.6-.8-1-.2-.4-.3-.9-.3-1.4 0-.6 0-1 .3-1.5.2-.4.5-.8.8-1a2 2 0 0 1 1.3-.4c.3 0 .6 0 .9.2a2 2 0 0 1 1.3 1.3l.2 1.2v.4H252v-.7h3.3c0-.3 0-.6-.2-.8a1.4 1.4 0 0 0-1.3-.8c-.3 0-.6 0-.9.2l-.5.7-.2.8v.5c0 .4 0 .7.2 1l.6.7.9.2h.6l.5-.4.3-.4.8.2-.5.7a2 2 0 0 1-.7.5l-1 .2Zm7.4-4.4-.8.2c0-.1 0-.2-.2-.3a1 1 0 0 0-.3-.3l-.6-.2c-.4 0-.6.1-.9.3-.2.1-.3.3-.3.6 0 .2 0 .3.2.4.2.2.4.3.7.3l.8.2c.5.2.9.3 1.1.6.3.2.4.5.4 1 0 .2 0 .5-.3.8l-.7.5a2 2 0 0 1-1.1.3c-.6 0-1-.2-1.4-.4-.4-.2-.6-.6-.7-1l.8-.3c0 .3.2.6.4.7l.9.2c.3 0 .7 0 .9-.2l.3-.6c0-.2 0-.4-.2-.5l-.6-.3-.9-.2c-.5-.1-.9-.3-1-.6-.3-.2-.4-.5-.4-.9 0-.3 0-.6.2-.8l.7-.6 1-.2c.6 0 1 .1 1.3.4.3.2.6.5.7 1Zm3.6 4.4c-.5 0-1-.2-1.3-.4-.4-.2-.7-.6-.9-1a3.7 3.7 0 0 1 0-2.9c.2-.4.5-.8.9-1 .3-.3.8-.4 1.3-.4.2 0 .5 0 .8.2a2 2 0 0 1 1.3 1.3l.2 1.2v.4h-4.2v-.7h3.4l-.2-.8a1.4 1.4 0 0 0-1.3-.8c-.4 0-.7 0-1 .2l-.5.7-.2.8v.5c0 .4.1.7.3 1 .1.3.3.5.6.7l.8.2h.6l.5-.4.3-.4.8.2c0 .3-.2.5-.4.7a2 2 0 0 1-.8.5l-1 .2Zm4.4-3.4v3.2h-.8v-5.4h.8v.8l.6-.6c.3-.2.6-.3 1-.3s.7 0 1 .2l.7.7.2 1.2v3.4h-.8v-3.4c0-.4-.2-.7-.4-1-.2-.2-.5-.3-.9-.3l-.7.1c-.2.2-.4.3-.5.6l-.2.8Zm7.4-2.2v.7H274v-.7h2.8Zm-2-1.3h.8v5.2l.1.5.3.2.4.1h.3l.2.7a1.9 1.9 0 0 1-1.3 0l-.6-.5-.2-.8v-5.4Zm4.9 6.9c-.4 0-.7 0-1-.2-.3-.2-.5-.3-.6-.6-.2-.2-.3-.5-.3-.9 0-.3 0-.6.2-.8l.5-.4.7-.3a8.2 8.2 0 0 1 1.5-.2l.5-.1.1-.3c0-.4 0-.7-.3-.9l-.8-.2c-.4 0-.7 0-1 .2-.2.2-.4.4-.4.6l-.8-.3.5-.8.8-.4a3.2 3.2 0 0 1 1.5 0l.6.2.6.6.2 1v3.6h-.9v-.7l-.3.4-.5.3a2 2 0 0 1-.8.2Zm0-.8c.4 0 .7 0 1-.2a1.3 1.3 0 0 0 .6-1.1v-.8l-.2.1a4 4 0 0 1-.9.2 16.2 16.2 0 0 0-1 .2 1 1 0 0 0-.4.2l-.2.5c0 .3.2.6.4.7l.8.2Zm6.4-4.8v.7h-2.9v-.7h2.9Zm-2-1.3h.8v5.2l.1.5.3.2.3.1h.4l.2.7a1.8 1.8 0 0 1-1.4 0l-.5-.5c-.2-.2-.2-.5-.2-.8v-5.4Zm3.2 6.7v-5.4h.9v5.4h-.9Zm.5-6.3c-.2 0-.4 0-.5-.2a.5.5 0 0 1-.1-.4l.1-.4.5-.2.4.2.2.4-.2.4-.4.2Zm4.1 6.5c-.5 0-1-.2-1.3-.4-.3-.2-.6-.6-.8-1-.3-.4-.4-.9-.4-1.5 0-.5.1-1 .4-1.4.2-.5.5-.8.8-1 .4-.3.8-.4 1.3-.4s1 .1 1.3.4c.4.2.7.5.9 1 .2.4.3.9.3 1.4 0 .6-.1 1.1-.3 1.5-.2.4-.5.8-.9 1-.4.2-.8.4-1.3.4Zm0-.8c.4 0 .7 0 1-.3l.5-.7.2-1-.2-1c-.1-.4-.3-.6-.6-.8-.2-.2-.5-.3-.9-.3s-.7 0-1 .3l-.4.7a3 3 0 0 0-.2 1c0 .4 0 .7.2 1 0 .4.3.6.5.8.2.2.5.3 1 .3Zm4.6-2.6v3.2h-.8v-5.4h.8v.8l.6-.6c.3-.2.6-.3 1-.3s.7 0 1 .2l.7.7.2 1.2v3.4h-.9v-3.4c0-.4 0-.7-.3-1-.2-.2-.5-.3-.9-.3l-.7.1c-.2.2-.4.3-.5.6l-.2.8Zm10 3.4c-.4 0-.9-.2-1.3-.4-.3-.2-.6-.6-.8-1-.2-.4-.3-.9-.3-1.5 0-.5 0-1 .3-1.4.2-.5.5-.8.9-1 .3-.3.8-.4 1.2-.4.5 0 1 .1 1.3.4.4.2.7.5 1 1l.2 1.4c0 .6 0 1.1-.3 1.5-.2.4-.5.8-.9 1-.3.2-.8.4-1.3.4Zm0-.8c.4 0 .7 0 1-.3l.5-.7.2-1c0-.4 0-.8-.2-1-.1-.4-.3-.6-.5-.8-.3-.2-.6-.3-1-.3-.3 0-.6 0-.9.3l-.5.7a3 3 0 0 0-.2 1c0 .4 0 .7.2 1 .1.4.3.6.5.8.3.2.6.3 1 .3Zm6.2-4.8v.7h-3v-.7h3Zm-2 5.4V477c0-.3 0-.5.2-.7.1-.3.3-.4.6-.5l.7-.2a2.1 2.1 0 0 1 .8.2l-.2.7h-.5l-.6.1-.2.6v6h-.8Zm6.1 0V476h2.6c.5 0 .9 0 1.2.2.4.2.6.4.8.7l.2 1c0 .3 0 .6-.2.8 0 .2-.2.3-.4.5a2 2 0 0 1-.6.2l.7.3.6.6.2 1c0 .4-.1.7-.3 1-.1.3-.4.5-.8.7-.3.2-.8.2-1.3.2h-2.7Zm1-.7h1.7c.5 0 1-.1 1.2-.4.2-.2.3-.5.3-.8l-.1-.7-.6-.5-.8-.2h-1.8v2.6Zm0-3.3h1.5c.3 0 .5 0 .8-.2.2 0 .3-.2.5-.4l.2-.7c0-.3-.2-.6-.4-.8-.2-.2-.5-.3-1-.3h-1.7v2.4Zm5.4 4v-5.4h.9v5.4h-.9Zm.4-6.3c-.1 0-.3 0-.4-.2a.5.5 0 0 1-.2-.4l.2-.4.4-.2.5.2.1.4-.1.4-.5.2Zm4.4.9v.7h-3v-.7h2.9Zm-2-1.3h.8v5.2l.1.5.3.2.3.1h.4l.2.7a1.9 1.9 0 0 1-1.4 0l-.5-.5c-.2-.2-.2-.5-.2-.8v-5.4Zm5.4 6.9a2.4 2.4 0 0 1-2.2-1.4 3.7 3.7 0 0 1 0-2.9c.2-.4.5-.8.9-1 .3-.3.8-.4 1.3-.4.4 0 .7 0 1 .2l.8.6c.2.3.3.6.3 1h-.8c0-.3-.2-.5-.4-.7-.3-.2-.6-.3-1-.3-.2 0-.5 0-.8.2l-.6.7-.2 1.1.2 1.1.6.7c.3.2.5.3.9.3l.6-.1a1.2 1.2 0 0 0 .7-.8h.8a2 2 0 0 1-1 1.4c-.4.2-.7.3-1.1.3Zm5.6 0c-.5 0-1-.2-1.3-.4-.4-.2-.7-.6-.9-1-.2-.4-.3-.9-.3-1.5 0-.5.1-1 .3-1.4.2-.5.5-.8.9-1 .3-.3.8-.4 1.3-.4s.9.1 1.3.4c.3.2.6.5.8 1 .2.4.3.9.3 1.4 0 .6 0 1.1-.3 1.5-.2.4-.5.8-.8 1-.4.2-.8.4-1.3.4Zm0-.8c.3 0 .6 0 .9-.3l.5-.7.2-1c0-.4 0-.8-.2-1 0-.4-.3-.6-.5-.8-.3-.2-.6-.3-1-.3-.3 0-.6 0-.9.3l-.5.7a3 3 0 0 0-.2 1c0 .4 0 .7.2 1 .1.4.3.6.5.8.3.2.6.3 1 .3Zm3.7.6v-5.4h.9v5.4h-.9Zm.4-6.3c-.1 0-.3 0-.4-.2a.5.5 0 0 1-.2-.4l.2-.4.4-.2.5.2.1.4-.1.4-.5.2Zm2.8 3v3.3h-.8v-5.4h.8v.8c.2-.2.4-.5.7-.6.2-.2.5-.3 1-.3.3 0 .7 0 1 .2l.6.7.2 1.2v3.4h-.8v-3.4c0-.4-.1-.7-.4-1-.2-.2-.5-.3-.9-.3l-.7.1c-.2.2-.4.3-.5.6l-.2.8Zm10 3.5c-.4 0-.9-.2-1.2-.4-.4-.2-.7-.6-.9-1-.2-.4-.3-.9-.3-1.5 0-.5.1-1 .3-1.4.2-.5.5-.8.9-1 .3-.3.8-.4 1.3-.4s.9.1 1.3.4c.3.2.6.5.8 1 .2.4.3.9.3 1.4 0 .6 0 1.1-.3 1.5-.2.4-.5.8-.8 1-.4.2-.8.4-1.3.4Zm0-.8c.4 0 .8 0 1-.3l.5-.7.2-1c0-.4 0-.8-.2-1 0-.4-.3-.6-.5-.8-.3-.2-.6-.3-1-.3-.3 0-.6 0-.9.3l-.5.7a3 3 0 0 0-.2 1c0 .4 0 .7.2 1 .1.4.3.6.5.8.3.2.6.3 1 .3Zm4.7-2.6v3.2h-.9v-5.4h.8v.8h.1c.1-.2.3-.5.6-.6.2-.2.6-.3 1-.3s.7 0 1 .2c.2.2.5.4.6.7.2.3.2.7.2 1.2v3.4h-.8v-3.4c0-.4-.1-.7-.3-1-.3-.2-.6-.3-1-.3l-.7.1-.5.6-.1.8Zm7.9 3.2V476h2.5c.5 0 1 0 1.3.2.3.2.6.4.7.7.2.3.3.6.3 1 0 .3 0 .6-.2.8l-.4.5a2 2 0 0 1-.6.2l.7.3.5.6a2 2 0 0 1 0 2c-.2.3-.4.5-.8.7-.3.2-.8.2-1.4.2h-2.6Zm.9-.7h1.7c.6 0 1-.1 1.2-.4.3-.2.4-.5.4-.8 0-.2 0-.5-.2-.7l-.5-.5-.8-.2h-1.8v2.6Zm0-3.3h1.6c.3 0 .5 0 .7-.2.2 0 .4-.2.5-.4.2-.2.2-.4.2-.7 0-.3 0-.6-.3-.8-.2-.2-.6-.3-1-.3h-1.7v2.4Zm7 4.2c-.3 0-.6 0-.9-.2-.2-.2-.5-.3-.6-.6-.2-.2-.3-.5-.3-.9 0-.3 0-.6.2-.8l.5-.4.7-.3a8.2 8.2 0 0 1 1.6-.2l.4-.1.2-.3c0-.4-.1-.7-.3-.9l-.9-.2c-.4 0-.7 0-1 .2l-.4.6-.8-.3c.1-.3.3-.6.6-.8l.7-.4a3.2 3.2 0 0 1 1.5 0l.6.2.6.6.2 1v3.6h-.8v-.7l-.4.4-.5.3a2 2 0 0 1-.8.2Zm.2-.8c.3 0 .6 0 .9-.2a1.3 1.3 0 0 0 .7-1.1v-.8l-.3.1a4 4 0 0 1-.8.2 17 17 0 0 0-1 .2 1 1 0 0 0-.5.2l-.1.5c0 .3 0 .6.3.7l.8.2Zm7.8-3.6-.8.2c0-.1 0-.2-.2-.3a1 1 0 0 0-.3-.3l-.6-.2c-.4 0-.7.1-.9.3-.2.1-.3.3-.3.6 0 .2 0 .3.2.4.2.2.4.3.7.3l.8.2c.5.2.9.3 1.1.6.3.2.4.5.4 1l-.3.8-.7.5a2.5 2.5 0 0 1-2.5-.1c-.4-.2-.6-.6-.7-1l.8-.3c0 .3.2.6.4.7l.8.2c.4 0 .7 0 1-.2l.3-.6c0-.2 0-.4-.2-.5l-.6-.3-.9-.2c-.5-.1-.9-.3-1.1-.6-.2-.2-.4-.5-.4-.9 0-.3.1-.6.3-.8l.7-.6 1-.2c.6 0 1 .1 1.3.4.3.2.6.5.7 1Zm3.6 4.4c-.5 0-1-.2-1.3-.4-.4-.2-.7-.6-1-1l-.2-1.4c0-.6 0-1 .3-1.5.2-.4.5-.8.9-1 .3-.3.8-.4 1.2-.4.3 0 .6 0 .9.2.3 0 .5.2.7.4.3.2.5.5.6.9l.2 1.2v.4H384v-.7h3.3l-.1-.8a1.4 1.4 0 0 0-1.4-.8c-.3 0-.6 0-.8.2l-.6.7-.2.8v.5l.2 1 .6.7 1 .2h.5l.5-.4.3-.4.8.2c0 .3-.2.5-.4.7a2 2 0 0 1-.8.5l-1 .2Zm4.2-.1c-.2 0-.3 0-.5-.2a.6.6 0 0 1-.2-.4l.2-.5.5-.2c.2 0 .3 0 .4.2.2.1.2.3.2.5v.3l-.3.2-.3.1Zm4.4-7.3h1l2 3.4h.1l2-3.4h1l-2.6 4.2v3h-.9v-3l-2.6-4.2Zm8.6 7.4c-.5 0-.9-.2-1.3-.4-.3-.2-.6-.6-.8-1-.2-.4-.3-.9-.3-1.5 0-.5 0-1 .3-1.4.2-.5.5-.8.8-1 .4-.3.8-.4 1.3-.4s1 .1 1.3.4c.4.2.7.5.9 1 .2.4.3.9.3 1.4 0 .6-.1 1.1-.3 1.5-.2.4-.5.8-.9 1-.4.2-.8.4-1.3.4Zm0-.8c.4 0 .7 0 1-.3l.5-.7.2-1-.2-1c-.1-.4-.3-.6-.6-.8-.2-.2-.5-.3-.9-.3-.3 0-.7 0-.9.3l-.5.7a3 3 0 0 0-.2 1c0 .4 0 .7.2 1 0 .4.3.6.5.8.2.2.6.3 1 .3Zm7.2-1.6v-3.2h.9v5.4h-.9v-.9l-.6.7a2 2 0 0 1-1 .3c-.4 0-.7 0-1-.2l-.6-.7-.2-1.1v-3.5h.8v3.4c0 .4.1.7.3 1 .3.2.6.3 1 .3a1.4 1.4 0 0 0 1.3-1.5Zm7.4 2.4a2.4 2.4 0 0 1-2.2-1.4 3.7 3.7 0 0 1 0-2.9c.3-.4.5-.8 1-1 .3-.3.7-.4 1.2-.4.4 0 .7 0 1 .2l.8.6.4 1h-.9c0-.3-.2-.5-.4-.7-.2-.2-.5-.3-.9-.3-.3 0-.6 0-.8.2-.3.2-.5.4-.6.7l-.2 1.1c0 .4 0 .8.2 1.1.1.3.3.6.5.7.3.2.6.3 1 .3l.5-.1a1.2 1.2 0 0 0 .7-.8h.9a2 2 0 0 1-1.1 1.4 2 2 0 0 1-1 .3Zm5 0c-.4 0-.7 0-1-.2-.2-.2-.5-.3-.6-.6-.2-.2-.3-.5-.3-.9 0-.3 0-.6.2-.8l.5-.4.7-.3a8.2 8.2 0 0 1 1.6-.2l.4-.1.2-.3c0-.4-.1-.7-.3-.9l-.9-.2c-.4 0-.7 0-1 .2l-.4.6-.8-.3c.1-.3.3-.6.6-.8l.7-.4a3.2 3.2 0 0 1 1.5 0l.6.2.6.6.2 1v3.6h-.8v-.7l-.4.4-.5.3a2 2 0 0 1-.8.2Zm.1-.8c.4 0 .6 0 .9-.2a1.3 1.3 0 0 0 .7-1.1v-.8l-.3.1a4 4 0 0 1-.8.2 16.2 16.2 0 0 0-1 .2 1 1 0 0 0-.5.2l-.1.5c0 .3 0 .6.3.7l.8.2Zm4.8-2.6v3.2h-.9v-5.4h.8v.8h.1c.1-.2.3-.5.6-.6.2-.2.6-.3 1-.3s.7 0 1 .2c.2.2.5.4.6.7.2.3.2.7.2 1.2v3.4h-.8v-3.4c0-.4-.1-.7-.3-1-.3-.2-.6-.3-1-.3l-.7.1-.5.6-.1.8Zm7.8 3.2v-5.4h.8v.8c.1-.3.3-.5.6-.6.3-.2.5-.3.9-.3h.4v.9a2.4 2.4 0 0 0-.5 0h-.7l-.5.5-.2.7v3.4h-.8Zm5.8.2c-.5 0-1-.2-1.3-.4-.4-.2-.7-.6-1-1l-.2-1.4c0-.6 0-1 .3-1.5.2-.4.5-.8.8-1a2 2 0 0 1 1.3-.4c.3 0 .6 0 .9.2.3 0 .5.2.7.4.3.2.4.5.6.9l.2 1.2v.4h-4.2v-.7h3.3c0-.3 0-.6-.2-.8a1.4 1.4 0 0 0-1.3-.8c-.3 0-.6 0-.8.2-.3.2-.5.4-.6.7l-.2.8v.5c0 .4 0 .7.2 1l.6.7 1 .2h.5l.5-.4.3-.4.8.2c0 .3-.2.5-.4.7a2 2 0 0 1-.8.5l-1 .2Zm7.9-5.6-2 5.4h-1l-2-5.4h1l1.5 4.3 1.5-4.3h1Zm3.2 5.6c-.6 0-1-.2-1.4-.4-.4-.2-.7-.6-.9-1a3.7 3.7 0 0 1 0-2.9c.2-.4.5-.8.9-1 .3-.3.8-.4 1.3-.4.2 0 .5 0 .8.2a2 2 0 0 1 1.3 1.3l.2 1.2v.4h-4.2v-.7h3.4l-.2-.8a1.4 1.4 0 0 0-1.3-.8c-.4 0-.7 0-.9.2l-.6.7-.2.8v.5c0 .4.1.7.3 1 .1.3.3.5.6.7l.9.2h.5l.5-.4.3-.4.8.2c0 .3-.2.5-.4.7a2 2 0 0 1-.8.5l-1 .2Zm3.5-.2v-5.4h.8v.8c.1-.3.3-.5.6-.6.3-.2.5-.3.9-.3h.4v.9a2.5 2.5 0 0 0-.5 0h-.7l-.5.5-.2.7v3.4h-.8Zm6.4-5.4v.7h-2.8v-.7h2.8Zm-2-1.3h.9v5.7l.3.2.4.1h.3l.2.7a1.8 1.8 0 0 1-1.3 0l-.6-.5-.2-.8v-5.4Zm7.7 6.9c-.3 0-.7 0-1-.2l-.6-.6c-.2-.2-.3-.5-.3-.9l.2-.8.5-.4.7-.3a8.2 8.2 0 0 1 1.6-.2l.4-.1.2-.3c0-.4-.1-.7-.3-.9l-.9-.2c-.4 0-.7 0-1 .2l-.4.6-.8-.3c.1-.3.3-.6.6-.8l.7-.4a3.2 3.2 0 0 1 1.5 0l.6.2.6.6.2 1v3.6h-.8v-.7l-.4.4-.5.3a2 2 0 0 1-.8.2Zm.1-.8c.4 0 .6 0 .9-.2a1.3 1.3 0 0 0 .7-1.1v-.8l-.3.1a4 4 0 0 1-.8.2 16.2 16.2 0 0 0-1 .2 1 1 0 0 0-.5.2l-.1.5c0 .3 0 .6.3.7l.8.2Zm4.8-2.6v3.2h-.9v-5.4h.8v.8h.1c.1-.2.3-.5.6-.6.2-.2.6-.3 1-.3s.7 0 1 .2c.2.2.5.4.6.7.2.3.2.7.2 1.2v3.4h-.8v-3.4c0-.4-.1-.7-.3-1-.3-.2-.6-.3-1-.3l-.7.1-.5.6-.1.8Zm5.3 5.3a1.8 1.8 0 0 1-.6-.1l.2-.7h.6c.1 0 .3 0 .4-.2l.3-.6.2-.4-2-5.5h.9l1.5 4.3 1.5-4.3h1l-2.4 6.2c0 .3-.2.6-.4.7l-.5.5h-.7Zm7.4-7.5v.7h-2.8v-.7h2.8Zm-2-1.3h.9v5.7l.3.2.4.1h.3l.2.7a1.9 1.9 0 0 1-1.3 0l-.6-.5-.2-.8v-5.4Zm3.3 6.7v-5.4h.8v5.4h-.8Zm.4-6.3c-.2 0-.3 0-.4-.2a.5.5 0 0 1-.2-.4c0-.1 0-.3.2-.4l.4-.2.4.2.2.4c0 .2 0 .3-.2.4l-.4.2Zm2 6.3v-5.4h.8v.8c.1-.2.3-.5.6-.6.2-.2.5-.3.9-.3s.7.1.9.3l.6.6.6-.6a2 2 0 0 1 1-.3c.5 0 1 .2 1.2.5.4.3.5.8.5 1.4v3.6h-.8v-3.6c0-.4-.1-.7-.4-.9l-.7-.2c-.4 0-.7 0-1 .3l-.2.9v3.5h-.9v-3.7a1 1 0 0 0-.3-.7 1 1 0 0 0-.8-.3l-.6.1-.4.5c-.2.2-.2.5-.2.7v3.4h-.8Zm11 .2c-.6 0-1-.2-1.4-.4-.4-.2-.7-.6-1-1l-.2-1.4c0-.6 0-1 .3-1.5.2-.4.5-.8.9-1 .3-.3.8-.4 1.2-.4.3 0 .6 0 .9.2a2 2 0 0 1 1.3 1.3l.2 1.2v.4h-4.2v-.7h3.3l-.1-.8a1.4 1.4 0 0 0-1.4-.8c-.3 0-.6 0-.8.2l-.6.7-.2.8v.5l.2 1a1.5 1.5 0 0 0 1.5 1l.6-.2c.2 0 .4-.1.5-.3l.3-.4.8.2c0 .3-.2.5-.4.7a2 2 0 0 1-.8.5l-1 .2Zm4-.1c-.1 0-.3 0-.4-.2a.6.6 0 0 1-.2-.4l.2-.5.5-.2c.2 0 .3 0 .4.2.2.1.2.3.2.5v.3l-.3.2-.3.1Z" opacity=".4"/></g><g filter="url(#r)"><g filter="url(#s)"><path fill="url(#t)" fill-opacity=".2" d="M570 278.3a50.2 50.2 0 0 0 39-30.6 41 41 0 0 0 2.4-23.8 33.7 33.7 0 0 0-11.6-19.2 36.3 36.3 0 0 0-21.6-8.1 46.7 46.7 0 0 0-24.4 5.7 51.4 51.4 0 0 0-19 17.7 44.4 44.4 0 0 0-7.1 23.6c0 10.8 4.4 20.5 12.4 27a38 38 0 0 0 29.8 7.7Z"/><path stroke="url(#u)" stroke-opacity=".3" stroke-width=".2" d="M593.4 268.1c-7 5.4-15.1 9-23.5 10.1a38.2 38.2 0 0 1-29.8-7.7 34.4 34.4 0 0 1-12.3-27c0-8 2.5-16.1 7-23.5a51.3 51.3 0 0 1 19-17.6 46.6 46.6 0 0 1 24.4-5.7 34.2 34.2 0 0 1 33.1 27.2c1.6 7.7.8 16-2.4 23.8a50 50 0 0 1-15.5 20.4Z"/></g><path fill="url(#v)" d="M606.2 235.8a49.7 49.7 0 0 1-51.2 36.8c-22.6-2.2-36.4-22.4-30.7-45a49.7 49.7 0 0 1 51.2-36.8c22.6 2.3 36.4 22.4 30.7 45Z"/><path fill="#fff" d="M583.9 223.3c.8-5.5-3.5-7.8-9.3-9l1.9-7.5-4.6-.5-1.9 7.4-3.7-.3 1.9-7.5-4.7-.4-1.9 7.6-3-.3-6.3-.6-1.3 4.9 3.4.3c1.9.2 2.2 1.4 2.2 2.3l-2.2 8.7h.5-.5l-3 12.1c-.3.6-.9 1.5-2.2 1.4l-3.3-.3-2.3 5.4 6 .6 3.3.4-2 7.6 4.7.5 2-7.6 3.6.4-1.9 7.6 4.7.4 1.9-7.6c7.9.3 13.8-1.1 16.3-8.4 2-5.8 0-8.7-4.2-10.2 3-1 5.3-3.3 5.9-7.4Zm-10.6 15.8c-1.4 5.8-11.1 4.1-14.3 3.8l2.6-10.2c3.1.3 13.2.4 11.7 6.4Zm1.4-14.6c-1.3 5.3-9.4 3.8-12 3.6l2.3-9.3c2.7.3 11 .3 9.7 5.7Z"/></g><g filter="url(#w)"><path fill="url(#x)" fill-opacity=".5" d="M77.4 143.2a52 52 0 0 0 43.2-24.4A41 41 0 0 0 127 96c-.3-7.6-3-14.7-8-20.2A34.6 34.6 0 0 0 99.4 65a46.8 46.8 0 0 0-24.7 2.2c-8.2 3-15.7 8-21.5 14.6a45.2 45.2 0 0 0-11 22 32.8 32.8 0 0 0 7.5 27.9 36.5 36.5 0 0 0 27.7 11.5Z"/><path stroke="url(#y)" stroke-opacity=".3" stroke-width=".2" d="M101.9 136.5a50.2 50.2 0 0 1-24.5 6.6c-11.1 0-21-4.1-27.6-11.5a32.7 32.7 0 0 1-7.4-27.9 45.1 45.1 0 0 1 11-21.9 53 53 0 0 1 21.3-14.5c8.2-3 16.8-3.7 24.7-2.2a34.7 34.7 0 0 1 19.5 10.8 31.7 31.7 0 0 1 8 20.1 41 41 0 0 1-6.4 22.8 51.8 51.8 0 0 1-18.6 17.7Z"/><g filter="url(#z)"><path fill="url(#A)" d="M72.1 136a52 52 0 0 0 43.2-24.4 41 41 0 0 0 6.4-22.8c-.2-7.7-3-14.7-8-20.2a33.5 33.5 0 0 0-19.4-10.8A46.8 46.8 0 0 0 69.4 60c-8.2 3-15.6 8-21.4 14.6a45.2 45.2 0 0 0-11 21.9 32.8 32.8 0 0 0 7.4 28A36.5 36.5 0 0 0 72.1 136Z"/><path stroke="url(#B)" stroke-opacity=".3" stroke-width=".2" d="M96.7 129.3a50.2 50.2 0 0 1-24.5 6.6 36.4 36.4 0 0 1-27.7-11.5 32.7 32.7 0 0 1-7.4-27.9 45.1 45.1 0 0 1 11-21.9 53 53 0 0 1 21.4-14.5c8.2-3 16.7-3.8 24.6-2.2a34.7 34.7 0 0 1 19.6 10.7 31.7 31.7 0 0 1 8 20.2 41 41 0 0 1-6.5 22.8 51.8 51.8 0 0 1-18.5 17.7Z"/></g><path fill="#fff" d="M74.1 124.3a35.8 35.8 0 0 0 34.5-27.8c2.7-15.4-8.3-27.8-24.7-27.8a36 36 0 0 0-34 25.5h44l-.9 4.6H49c-1.2 14.3 9.6 25.5 25.1 25.5Z"/><path stroke="url(#C)" stroke-opacity=".3" stroke-width=".2" d="M94 94.2V94H50a36 36 0 0 1 34-25.2c16.3 0 27.3 12.4 24.6 27.7a35.6 35.6 0 0 1-34.4 27.7c-15.4 0-26.1-11.1-25-25.3h44v-.1l.9-4.6Z"/></g><defs><linearGradient id="c" x1="286.9" x2="286.9" y1="455" y2="739" gradientUnits="userSpaceOnUse"><stop stop-opacity="0"/><stop offset=".8"/></linearGradient><linearGradient id="e" x1="490.6" x2="490.6" y1="340.6" y2="624.6" gradientUnits="userSpaceOnUse"><stop stop-opacity="0"/><stop offset=".8"/></linearGradient><linearGradient id="g" x1="336" x2="541" y1="152" y2="-53" gradientUnits="userSpaceOnUse"><stop/><stop offset="1" stop-opacity="0"/></linearGradient><linearGradient id="p" x1="525.5" x2="140" y1="405.8" y2="405.8" gradientUnits="userSpaceOnUse"><stop stop-color="#66F9FF" stop-opacity=".6"/><stop offset=".5" stop-color="#66F9FF"/><stop offset="1" stop-color="#66F9FF" stop-opacity=".6"/></linearGradient><linearGradient id="t" x1="598.4" x2="577" y1="245.6" y2="269" gradientUnits="userSpaceOnUse"><stop stop-color="#121213"/><stop offset="1" stop-color="#E78A19"/></linearGradient><linearGradient id="u" x1="620.4" x2="572.7" y1="219" y2="276.9" gradientUnits="userSpaceOnUse"><stop stop-color="#fff"/><stop offset="1" stop-color="#fff" stop-opacity="0"/></linearGradient><linearGradient id="v" x1="541.9" x2="618.3" y1="201.8" y2="215.4" gradientUnits="userSpaceOnUse"><stop stop-color="#F7931A"/><stop offset="1" stop-color="#F7931A" stop-opacity="0"/></linearGradient><linearGradient id="x" x1="149.6" x2="84.7" y1="103.7" y2="100.3" gradientUnits="userSpaceOnUse"><stop stop-color="#66F9FF"/><stop offset="1" stop-color="#0052FF"/></linearGradient><linearGradient id="y" x1="136.6" x2="80.4" y1="92.5" y2="142.4" gradientUnits="userSpaceOnUse"><stop stop-color="#fff"/><stop offset="1" stop-color="#fff" stop-opacity="0"/></linearGradient><linearGradient id="A" x1="105.3" x2="39.3" y1="108.1" y2="86.1" gradientUnits="userSpaceOnUse"><stop stop-color="#fff" stop-opacity=".2"/><stop offset="1" stop-color="#0052FF"/></linearGradient><linearGradient id="B" x1="131.3" x2="75.2" y1="85.2" y2="135.1" gradientUnits="userSpaceOnUse"><stop stop-color="#fff"/><stop offset="1" stop-color="#fff" stop-opacity="0"/></linearGradient><linearGradient id="C" x1="115.8" x2="76.2" y1="88.6" y2="123.6" gradientUnits="userSpaceOnUse"><stop stop-color="#fff"/><stop offset="1" stop-color="#fff" stop-opacity="0"/></linearGradient><filter id="a" width="522.5" height="522.5" x="-59.2" y="276.9" color-interpolation-filters="sRGB" filterUnits="userSpaceOnUse"><feFlood flood-opacity="0" result="BackgroundImageFix"/><feBlend in="SourceGraphic" in2="BackgroundImageFix" result="shape"/><feGaussianBlur result="effect1_foregroundBlur_4040_25527" stdDeviation="41.6"/></filter><filter id="b" width="781.4" height="781.4" x="-103.8" y="170.3" color-interpolation-filters="sRGB" filterUnits="userSpaceOnUse"><feFlood flood-opacity="0" result="BackgroundImageFix"/><feBlend in="SourceGraphic" in2="BackgroundImageFix" result="shape"/><feGaussianBlur result="effect1_foregroundBlur_4040_25527" stdDeviation="106.3"/></filter><filter id="d" width="892.4" height="892.4" x="44.3" y=".4" color-interpolation-filters="sRGB" filterUnits="userSpaceOnUse"><feFlood flood-opacity="0" result="BackgroundImageFix"/><feBlend in="SourceGraphic" in2="BackgroundImageFix" result="shape"/><feGaussianBlur result="effect1_foregroundBlur_4040_25527" stdDeviation="134.1"/></filter><filter id="i" width="599.3" height="678.3" x="36.4" y="-41.6" color-interpolation-filters="sRGB" filterUnits="userSpaceOnUse"><feFlood flood-opacity="0" result="BackgroundImageFix"/><feGaussianBlur in="BackgroundImageFix" stdDeviation="31.8"/><feComposite in2="SourceAlpha" operator="in" result="effect1_backgroundBlur_4040_25527"/><feBlend in="SourceGraphic" in2="effect1_backgroundBlur_4040_25527" result="shape"/></filter><filter id="o" width="34.2" height="17.9" x="479.7" y="154.8" color-interpolation-filters="sRGB" filterUnits="userSpaceOnUse"><feFlood flood-opacity="0" result="BackgroundImageFix"/><feColorMatrix in="SourceAlpha" result="hardAlpha" values="0 0 0 0 0 0 0 0 0 0 0 0 0 0 0 0 0 0 127 0"/><feOffset/><feGaussianBlur stdDeviation="2.5"/><feComposite in2="hardAlpha" operator="out"/><feColorMatrix values="0 0 0 0 0.4 0 0 0 0 0.976471 0 0 0 0 1 0 0 0 0.5 0"/><feBlend in2="BackgroundImageFix" result="effect1_dropShadow_4040_25527"/><feBlend in="SourceGraphic" in2="effect1_dropShadow_4040_25527" result="shape"/></filter><filter id="q" width="80.1" height="20.1" x="295.8" y="416.5" color-interpolation-filters="sRGB" filterUnits="userSpaceOnUse"><feFlood flood-opacity="0" result="BackgroundImageFix"/><feColorMatrix in="SourceAlpha" result="hardAlpha" values="0 0 0 0 0 0 0 0 0 0 0 0 0 0 0 0 0 0 127 0"/><feOffset/><feGaussianBlur stdDeviation="2.5"/><feComposite in2="hardAlpha" operator="out"/><feColorMatrix values="0 0 0 0 0.4 0 0 0 0 0.976471 0 0 0 0 1 0 0 0 0.5 0"/><feBlend in2="BackgroundImageFix" result="effect1_dropShadow_4040_25527"/><feBlend in="SourceGraphic" in2="effect1_dropShadow_4040_25527" result="shape"/></filter><filter id="r" width="120.7" height="133.7" x="521" y="185.1" color-interpolation-filters="sRGB" filterUnits="userSpaceOnUse"><feFlood flood-opacity="0" result="BackgroundImageFix"/><feColorMatrix in="SourceAlpha" result="hardAlpha" values="0 0 0 0 0 0 0 0 0 0 0 0 0 0 0 0 0 0 127 0"/><feOffset dx="13.8" dy="24.4"/><feGaussianBlur stdDeviation="7.9"/><feComposite in2="hardAlpha" operator="out"/><feColorMatrix values="0 0 0 0 0 0 0 0 0 0 0 0 0 0 0 0 0 0 0.25 0"/><feBlend in2="BackgroundImageFix" result="effect1_dropShadow_4040_25527"/><feBlend in="SourceGraphic" in2="effect1_dropShadow_4040_25527" result="shape"/></filter><filter id="s" width="100.5" height="98.2" x="519.7" y="188.6" color-interpolation-filters="sRGB" filterUnits="userSpaceOnUse"><feFlood flood-opacity="0" result="BackgroundImageFix"/><feGaussianBlur in="BackgroundImageFix" stdDeviation="4"/><feComposite in2="SourceAlpha" operator="in" result="effect1_backgroundBlur_4040_25527"/><feBlend in="SourceGraphic" in2="effect1_backgroundBlur_4040_25527" result="shape"/></filter><filter id="w" width="129.5" height="126.3" x="28.1" y="57" color-interpolation-filters="sRGB" filterUnits="userSpaceOnUse"><feFlood flood-opacity="0" result="BackgroundImageFix"/><feColorMatrix in="SourceAlpha" result="hardAlpha" values="0 0 0 0 0 0 0 0 0 0 0 0 0 0 0 0 0 0 127 0"/><feOffset dx="13.8" dy="24.4"/><feGaussianBlur stdDeviation="7.9"/><feComposite in2="hardAlpha" operator="out"/><feColorMatrix values="0 0 0 0 0 0 0 0 0 0 0 0 0 0 0 0 0 0 0.25 0"/><feBlend in2="BackgroundImageFix" result="effect1_dropShadow_4040_25527"/><feBlend in="SourceGraphic" in2="effect1_dropShadow_4040_25527" result="shape"/></filter><filter id="z" width="101" height="94.7" x="28.6" y="49.1" color-interpolation-filters="sRGB" filterUnits="userSpaceOnUse"><feFlood flood-opacity="0" result="BackgroundImageFix"/><feGaussianBlur in="BackgroundImageFix" stdDeviation="3.9"/><feComposite in2="SourceAlpha" operator="in" result="effect1_backgroundBlur_4040_25527"/><feBlend in="SourceGraphic" in2="effect1_backgroundBlur_4040_25527" result="shape"/></filter><clipPath id="l"><path fill="#fff" d="M241.5 47.5h20.4v20.4h-20.4z"/></clipPath><clipPath id="m"><path fill="#fff" d="M466.5 47.5h20.4v20.4h-20.4z"/></clipPath><clipPath id="n"><path fill="#fff" d="M323.3 45h25.5v25.4h-25.5z"/></clipPath><radialGradient id="h" cx="0" cy="0" r="1" gradientTransform="matrix(62 541 -520 59 375.5 22)" gradientUnits="userSpaceOnUse"><stop offset=".5" stop-color="#fff" stop-opacity=".2"/><stop offset=".9" stop-color="#fff" stop-opacity="0"/></radialGradient></defs></svg>