<svg xmlns="http://www.w3.org/2000/svg" width="74" height="28" fill="none"><g clip-path="url(#a)"><path fill="#ABABB9" d="M70.228 21.28 66.65 16.3l-3.604 4.98h-2.89l5.063-6.962-4.925-6.742h2.89l3.466 4.816 3.44-4.816h2.89l-4.899 6.797 5.036 6.907zM43.938 18.639v-8.42l2.641-2.642h5.339l2.036 1.788V1.633h2.56V21.28h-2.45v-2.367l-2.367 2.366H46.58zm7.347.412 2.669-2.696v-4.43l-2.394-2.12h-3.798l-1.265 1.266v6.715l1.265 1.265zM4.016 9.777H1.539V7.576h2.477V4.63L6.547 2.1h4.32v2.174H7.649L6.575 5.347v2.229h4.292v2.201H6.576V21.28h-2.56z"/><path fill="#fff" d="m31.009 21.387-3.577-4.98-3.605 4.98h-2.89l5.064-6.962-4.926-6.741h2.89l3.467 4.815 3.44-4.815h2.889l-4.898 6.796 5.035 6.907zM13.656.764h6.033v2.334h-3.528v22.214h3.528v2.334h-6.033zM34.504 27.646v-2.334h3.501V3.098h-3.501V.764h6.033v26.882z"/></g><defs><clipPath id="a"><path fill="#fff" d="M.531 0h72.8v28H.531z"/></clipPath></defs></svg>